<svg viewBox="0 0 180 60" xmlns="http://www.w3.org/2000/svg" fill-rule="evenodd" clip-rule="evenodd" stroke-linejoin="round" stroke-miterlimit="2"><path fill="#fff" d="M0 0h180v60H0z"/><path d="M29.612 13.2a3.974 3.974 0 00-3.4-1.922c-1.391 0-2.684.73-3.402 1.922l-5.594 9.582a27.415 27.415 0 0115.091 22.666H28.38a23.56 23.56 0 00-13.144-19.317l-5.178 8.953a13.547 13.547 0 017.847 10.347h-9.02a.649.649 0 01-.528-.943l2.5-4.251A9.143 9.143 0 008 38.62l-2.474 4.251a3.862 3.862 0 001.437 5.306c.587.33 1.248.506 1.922.51h12.354a16.511 16.511 0 00-6.802-14.717l1.964-3.402a20.317 20.317 0 018.757 18.119h10.466A30.537 30.537 0 0021.671 21.65l3.97-6.802a.658.658 0 01.893-.23c.451.247 17.251 29.562 17.566 29.903a.645.645 0 01-.564.96h-4.061a34.338 34.338 0 010 3.24h4.089a3.92 3.92 0 003.903-3.903v-.017a3.82 3.82 0 00-.527-1.938L29.612 13.2zm81.043 22.122l-12.55-16.205h-3.128V40.84h3.171V24.193l12.907 16.647h2.772V19.117h-3.172v16.205zm-31.603-4.03h11.249V28.47H79.044V21.93h12.694V19.11H75.813V40.84H91.9v-2.823H79.044l.008-6.725zm-13.229-2.755c-4.378-1.054-5.603-1.887-5.603-3.91 0-1.82 1.607-3.053 4.005-3.053 2.183.064 4.29.824 6.01 2.168l1.701-2.406a11.992 11.992 0 00-7.652-2.55c-4.302 0-7.303 2.55-7.303 6.18 0 3.912 2.55 5.264 7.192 6.394 4.133.952 5.4 1.837 5.4 3.818 0 1.98-1.701 3.205-4.328 3.205-2.615-.012-5.133-1-7.057-2.772l-1.913 2.287a13.554 13.554 0 008.86 3.274c4.658 0 7.651-2.508 7.651-6.386-.025-3.281-1.963-5.041-6.963-6.249zm105.521-9.42l-6.538 10.203-6.496-10.203h-3.792l8.579 13.136v8.596h3.265V32.15L175 19.117h-3.656zm-54.95 2.942h7.116v18.79h3.265v-18.79h7.117v-2.942h-17.49l-.008 2.942zm32.598 10.304c3.281-.91 5.101-3.205 5.101-6.487 0-4.174-3.052-6.801-7.975-6.801h-9.658v21.757h3.23v-7.805h5.484l5.51 7.822h3.775l-5.952-8.35.485-.136zm-9.31-2.125v-8.247h6.096c3.18 0 5 1.505 5 4.115 0 2.61-1.948 4.132-4.966 4.132h-6.13z" fill="#362d59" fill-rule="nonzero"/></svg>
