<?xml version="1.0" encoding="UTF-8" standalone="no"?>
<!DOCTYPE svg PUBLIC "-//W3C//DTD SVG 1.1//EN" "http://www.w3.org/Graphics/SVG/1.1/DTD/svg11.dtd">
<svg width="100%" height="100%" viewBox="0 0 180 60" version="1.1" xmlns="http://www.w3.org/2000/svg" xmlns:xlink="http://www.w3.org/1999/xlink" xml:space="preserve" xmlns:serif="http://www.serif.com/" style="fill-rule:evenodd;clip-rule:evenodd;stroke-linejoin:round;stroke-miterlimit:2;">
    <g id="Layer1">
        <g transform="matrix(0.989348,0,0,0.968489,-0.174854,0.333293)">
            <rect x="0.177" y="-0.344" width="181.938" height="61.952" style="fill:white;"/>
        </g>
        <g transform="matrix(0.3,0,0,0.3,90,30)">
            <g transform="matrix(1,0,0,1,-300,-100)">
                <rect x="0" y="0" width="600" height="200" style="fill:white;"/>
                <g>
                    <path d="M93.056,117.653L93.056,149.681L76.389,149.681L76.389,52.205L143.056,52.205L143.056,68.915L93.056,68.915L93.056,100.943L122.222,100.943L122.222,117.653L93.056,117.653ZM108.333,183.101C154.357,183.101 191.667,145.694 191.667,99.55C191.667,53.407 154.357,16 108.333,16C62.31,16 25,53.407 25,99.55C25,145.694 62.31,183.101 108.333,183.101ZM126.389,73.093L126.389,117.653L143.056,117.653L143.056,73.093L126.389,73.093ZM228.703,74.101L258.535,74.101L258.535,81.3L236.928,81.3L236.928,93.997L257.295,93.997L257.295,100.934L236.928,100.934L236.928,120.438L228.703,120.438L228.703,74.101ZM262.588,89.023L270.421,89.023L270.421,120.438L262.588,120.438L262.588,89.023ZM261.478,78.355C261.478,77.089 261.946,75.988 262.881,75.049C263.815,74.111 265.003,73.643 266.439,73.643C267.875,73.643 269.082,74.09 270.061,74.984C271.04,75.878 271.531,77.003 271.531,78.355C271.531,79.707 271.042,80.831 270.061,81.725C269.081,82.619 267.875,83.067 266.439,83.067C265.003,83.067 263.817,82.598 262.881,81.661C261.945,80.724 261.478,79.621 261.478,78.355ZM277.999,70.959L285.832,70.959L285.832,120.438L277.999,120.438L277.999,70.959ZM315.343,101.589C315.343,100.586 315.202,99.626 314.92,98.709C314.638,97.793 314.191,96.985 313.581,96.288C312.971,95.59 312.199,95.034 311.263,94.62C310.327,94.205 309.229,93.997 307.967,93.997C305.617,93.997 303.627,94.707 301.995,96.125C300.363,97.542 299.459,99.364 299.285,101.589L315.343,101.589ZM323.177,105.123L323.177,106.17C323.177,106.518 323.154,106.868 323.111,107.217L299.285,107.217C299.357,108.288 299.65,109.332 300.144,110.283C300.639,111.235 301.324,112.074 302.157,112.747C302.984,113.424 303.92,113.959 304.964,114.351C306.009,114.744 307.096,114.94 308.228,114.94C310.186,114.94 311.839,114.581 313.189,113.86C314.539,113.138 315.647,112.147 316.518,110.883L321.741,115.071C318.65,119.26 314.168,121.354 308.293,121.354C305.856,121.354 303.616,120.973 301.57,120.208C299.524,119.444 297.75,118.366 296.25,116.969C294.75,115.573 293.574,113.861 292.724,111.831C291.874,109.801 291.452,107.5 291.452,104.927C291.452,102.397 291.875,100.095 292.724,98.023C293.572,95.951 294.738,94.182 296.217,92.722C297.696,91.261 299.447,90.125 301.471,89.318C303.495,88.512 305.682,88.107 308.032,88.107C310.209,88.107 312.221,88.466 314.07,89.186C315.918,89.906 317.52,90.975 318.868,92.393C320.217,93.81 321.272,95.579 322.035,97.694C322.797,99.809 323.177,102.287 323.177,105.123ZM329.057,74.101L344.136,74.101C346.791,74.101 349.185,74.34 351.317,74.821C353.449,75.301 355.277,76.087 356.8,77.177C358.324,78.267 359.499,79.664 360.325,81.366C361.152,83.067 361.566,85.118 361.566,87.518C361.566,90.092 361.086,92.252 360.129,93.997C359.172,95.742 357.878,97.15 356.246,98.218C354.614,99.286 352.71,100.061 350.534,100.542C348.357,101.022 346.052,101.262 343.614,101.262L337.282,101.262L337.282,120.438L329.057,120.438L329.057,74.101ZM343.027,94.324C344.375,94.324 345.66,94.227 346.878,94.03C348.096,93.834 349.184,93.485 350.142,92.982C351.1,92.479 351.861,91.794 352.427,90.921C352.992,90.048 353.275,88.914 353.275,87.518C353.275,86.166 352.992,85.064 352.427,84.212C351.861,83.36 351.11,82.697 350.174,82.216C349.238,81.736 348.174,81.42 346.975,81.267C345.777,81.114 344.55,81.038 343.288,81.038L337.282,81.038L337.282,94.324L343.027,94.324ZM363.399,89.023L370.906,89.023L370.906,94.259L371.036,94.259C371.907,92.426 373.125,90.943 374.692,89.808C376.259,88.674 378.086,88.107 380.175,88.107C380.481,88.107 380.806,88.118 381.154,88.14C381.503,88.162 381.807,88.215 382.068,88.303L382.068,95.502C381.546,95.371 381.1,95.284 380.729,95.241C380.359,95.197 380.002,95.175 379.653,95.175C377.868,95.175 376.432,95.502 375.345,96.157C374.257,96.811 373.409,97.597 372.799,98.513C372.189,99.429 371.777,100.368 371.559,101.327C371.341,102.287 371.232,103.051 371.232,103.618L371.232,120.438L363.399,120.438L363.399,89.023ZM405.966,101.589C405.966,100.586 405.824,99.626 405.542,98.709C405.26,97.793 404.813,96.985 404.203,96.288C403.593,95.59 402.821,95.034 401.885,94.62C400.949,94.205 399.852,93.997 398.589,93.997C396.239,93.997 394.249,94.707 392.617,96.125C390.985,97.542 390.081,99.364 389.907,101.589L405.966,101.589ZM413.799,105.123L413.799,106.17C413.799,106.518 413.777,106.868 413.734,107.217L389.907,107.217C389.98,108.288 390.272,109.332 390.767,110.283C391.261,111.235 391.946,112.074 392.779,112.747C393.606,113.424 394.542,113.959 395.586,114.351C396.631,114.744 397.718,114.94 398.85,114.94C400.809,114.94 402.461,114.581 403.811,113.86C405.161,113.138 406.27,112.147 407.141,110.883L412.363,115.071C409.273,119.26 404.791,121.354 398.916,121.354C396.478,121.354 394.238,120.973 392.192,120.208C390.146,119.444 388.373,118.366 386.873,116.969C385.373,115.573 384.196,113.861 383.346,111.831C382.496,109.801 382.074,107.5 382.074,104.927C382.074,102.397 382.498,100.095 383.346,98.023C384.195,95.951 385.36,94.182 386.839,92.722C388.318,91.261 390.07,90.125 392.093,89.318C394.117,88.512 396.304,88.107 398.654,88.107C400.831,88.107 402.843,88.466 404.692,89.186C406.541,89.906 408.142,90.975 409.491,92.393C410.839,93.81 411.895,95.579 412.657,97.694C413.42,99.809 413.799,102.287 413.799,105.123ZM414.588,89.023L423.139,89.023L431.364,111.93L431.495,111.93L439.785,89.023L448.075,89.023L435.607,120.438L427.252,120.438L414.588,89.023ZM450.823,89.023L458.656,89.023L458.656,120.438L450.823,120.438L450.823,89.023ZM449.713,78.355C449.713,77.089 450.181,75.988 451.116,75.049C452.05,74.111 453.238,73.643 454.674,73.643C456.11,73.643 457.317,74.09 458.296,74.984C459.275,75.878 459.766,77.003 459.766,78.355C459.766,79.707 459.277,80.831 458.296,81.725C457.316,82.619 456.11,83.067 454.674,83.067C453.238,83.067 452.052,82.598 451.116,81.661C450.18,80.724 449.713,79.621 449.713,78.355ZM488.167,101.589C488.167,100.586 488.025,99.626 487.743,98.709C487.461,97.793 487.014,96.985 486.405,96.288C485.795,95.59 485.023,95.034 484.086,94.62C483.15,94.205 482.053,93.997 480.791,93.997C478.441,93.997 476.45,94.707 474.818,96.125C473.186,97.542 472.282,99.364 472.109,101.589L488.167,101.589ZM496,105.123L496,106.17C496,106.518 495.978,106.868 495.935,107.217L472.109,107.217C472.181,108.288 472.474,109.332 472.968,110.283C473.462,111.235 474.148,112.074 474.981,112.747C475.807,113.424 476.743,113.959 477.788,114.351C478.832,114.744 479.92,114.94 481.052,114.94C483.01,114.94 484.663,114.581 486.013,113.86C487.363,113.138 488.471,112.147 489.342,110.883L494.564,115.071C491.474,119.26 486.992,121.354 481.117,121.354C478.68,121.354 476.439,120.973 474.393,120.208C472.348,119.444 470.574,118.366 469.074,116.969C467.574,115.573 466.398,113.861 465.549,111.831C464.7,109.801 464.275,107.5 464.275,104.927C464.275,102.397 464.699,100.095 465.548,98.023C466.396,95.951 467.561,94.182 469.041,92.722C470.52,91.261 472.271,90.125 474.296,89.318C476.321,88.512 478.506,88.107 480.856,88.107C483.032,88.107 485.045,88.466 486.895,89.186C488.745,89.906 490.343,90.975 491.692,92.393C493.041,93.81 494.096,95.579 494.859,97.694C495.621,99.809 496,102.287 496,105.123ZM497.05,89.023L505.536,89.023L512.064,111.537L512.195,111.537L518.918,89.023L527.274,89.023L534.063,111.537L534.193,111.537L540.852,89.023L549.012,89.023L538.175,120.438L530.212,120.438L523.096,98.448L522.966,98.448L515.916,120.438L507.952,120.438L497.05,89.023ZM569.057,97.4C568.362,96.484 567.405,95.688 566.185,95.011C564.966,94.334 563.639,93.997 562.203,93.997C560.941,93.997 559.788,94.259 558.744,94.782C557.699,95.306 557.177,96.179 557.177,97.4C557.177,98.622 557.753,99.484 558.907,99.986C560.062,100.489 561.746,101 563.966,101.524C565.141,101.785 566.327,102.135 567.524,102.571C568.721,103.007 569.807,103.584 570.788,104.306C571.769,105.027 572.56,105.92 573.17,106.989C573.78,108.059 574.084,109.356 574.084,110.883C574.084,112.803 573.725,114.428 573.007,115.759C572.289,117.09 571.331,118.168 570.135,118.998C568.939,119.828 567.545,120.427 565.957,120.797C564.37,121.168 562.725,121.354 561.028,121.354C558.591,121.354 556.22,120.907 553.913,120.012C551.606,119.116 549.691,117.842 548.168,116.184L553.325,111.341C554.196,112.476 555.327,113.413 556.72,114.155C558.113,114.897 559.657,115.268 561.355,115.268C561.92,115.268 562.496,115.202 563.085,115.071C563.674,114.94 564.216,114.733 564.717,114.45C565.219,114.167 565.62,113.785 565.924,113.304C566.228,112.824 566.381,112.235 566.381,111.537C566.381,110.228 565.784,109.29 564.587,108.723C563.389,108.156 561.593,107.588 559.2,107.021C558.025,106.759 556.884,106.422 555.774,106.007C554.664,105.592 553.674,105.047 552.803,104.371C551.932,103.696 551.237,102.853 550.714,101.851C550.192,100.848 549.931,99.603 549.931,98.12C549.931,96.375 550.289,94.87 551.009,93.604C551.728,92.339 552.673,91.303 553.848,90.496C555.023,89.69 556.35,89.088 557.83,88.696C559.309,88.303 560.832,88.107 562.399,88.107C564.663,88.107 566.871,88.499 569.024,89.285C571.177,90.07 572.887,91.271 574.149,92.884L569.057,97.4Z" style="fill:rgb(16,131,255);"/>
                </g>
            </g>
        </g>
    </g>
</svg>
