<svg xmlns="http://www.w3.org/2000/svg" xml:space="preserve" style="fill-rule:evenodd;clip-rule:evenodd;stroke-linejoin:round;stroke-miterlimit:2" viewBox="0 0 8782 2582"><path d="M0 0h8782v2582H0z" style="fill:#ebebeb"/><path d="M4750.55 344.437a176.18 176.18 0 0 1 49.67-123.535 176.23 176.23 0 0 1 121.92-53.52c46.79.546 91.5 19.375 124.59 52.462a179.12 179.12 0 0 1 52.46 124.593 175.79 175.79 0 0 1-177.05 171.588 173.3 173.3 0 0 1-120.85-50.742 173.3 173.3 0 0 1-50.74-120.846m1373.54 373.456c84.11 0 137.95 46.682 137.95 148.457a984.5 984.5 0 0 1-72.76 288.5c-67.71 182.1-137.94 390.28-213.64 627.06-33.65-114.4-98.84-294.4-179.58-504.67l-70.24-192.62a812.7 812.7 0 0 1-59.72-244.345 110.7 110.7 0 0 1 3.22-46.218 110.7 110.7 0 0 1 21.87-40.846 110.6 110.6 0 0 1 81.74-39.103v-34.065h-588.79v34.065c80.33 7.57 145.52 84.111 231.31 312.052l374.72 991.26a400.56 400.56 0 0 1 33.44 178.66 400.5 400.5 0 0 1-49 175.03c-42.06 93.78-104.3 140.46-177.06 140.46-90.84 0-137.94-39.11-137.94-119.43 0-31.55 60.14-93.79 60.14-153.51 0-84.11-65.19-122.38-137.94-122.38-23.07-.8-46.05 3.3-67.41 12.04a163.3 163.3 0 0 0-56.54 38.64 163.4 163.4 0 0 0-35.7 58.44 163.3 163.3 0 0 0-8.58 67.93 301.58 301.58 0 0 0 96.57 208.57 301.52 301.52 0 0 0 215.49 79.94c38.76 1.33 77.4-5 113.7-18.64a294.4 294.4 0 0 0 97.84-60.85c31.12-23.13 70.23-103.88 91.26-142.99a630.4 630.4 0 0 0 39.11-96.31c18.09-44.15 28.6-80.32 36.17-103.87 7.57-23.56 23.55-62.67 42.06-122.39l42.05-132.47c111.87-348.65 218.69-653.13 320.05-910.511 59.72-148.457 137.94-236.774 177.05-254.858a222.1 222.1 0 0 1 67.29-23.551v-34.066h-428.13zM2016.92 1948.45c-75.7-13.04-140.47-80.75-140.47-223.74V.421l-428.96 92.943v36.588c72.75-7.99 145.93 57.196 145.93 195.139V1724.71c0 135.42-73.18 213.22-145.93 223.74l-20.61 2.52a224.54 224.54 0 0 1-108.51-19.35 323.82 323.82 0 0 1-146.77-135L972.675 1477A365.52 365.52 0 0 0 794.8 1330a365.5 365.5 0 0 0-230.487-11.13l223.737-247.29c168.223-187.146 325.51-307.005 473.55-356.21v-34.066H770.807v34.066c126.167 49.205 119.859 158.55-26.075 330.14l-314.577 367.15V0L.765 93.364v36.588c72.756 0 145.933 72.757 145.933 200.186V1724.71c0 153.5-70.233 213.22-145.933 223.74v33.64h569.856v-33.64c-93.784-13.04-140.466-84.12-140.466-223.74v-257.38l122.382-133.32 296.494 486.59c70.233 116.91 134.999 163.59 239.299 163.59h989.99v-26.49s-28.6-3.79-61.4-9.25m1320.55 3.78v34.07s-291.86 104.72-380.18-73.18a357.95 357.95 0 0 1-37.85-150.98 471.45 471.45 0 0 1-175.85 187.49 471.54 471.54 0 0 1-248.07 67.37c-210.28 0-361.68-98.83-361.68-315a271.6 271.6 0 0 1 47.1-153.5c62.24-93.37 135-142.99 270.42-195.14 67.71-25.66 126.17-44.16 168.22-57.2 42.06-13.04 101.36-26.07 168.22-38.69l131.64-31.54V1069.9c0-259.905-111.87-378.502-267.9-378.502-122.38 0-192.61 80.747-192.61 174.531 0 51.729 36.59 126.168 36.59 182.101 0 72.76-65.19 126.17-156.03 126.17s-135-70.23-135-164.02c0-93.784 46.68-179.578 142.99-252.334a521.07 521.07 0 0 1 319.62-109.345c365.47 0 524.86 173.27 530.75 553.879v580.79c1.26 37.43 11.77 189.67 139.62 169.06m-418.03-687.19c-15.56 7.99-51.73 21.03-111.87 42.05l-119.44 44.16c-30.28 14.3-52.15 26.08-96.31 49.63-34 16.21-64.89 38.27-91.26 65.19a290.12 290.12 0 0 0-72.75 179.15c0 153.51 84.11 236.78 210.28 236.78a294.38 294.38 0 0 0 187.56-75.28 252.25 252.25 0 0 0 70.73-90.79 252.4 252.4 0 0 0 23.06-112.76zm4817.49 68.97a677.4 677.4 0 0 1-48.92 262.03c-33.5 83.24-83.2 159-146.22 222.87a639.4 639.4 0 0 1-211.87 148.28 639.6 639.6 0 0 1-253.26 52.28c-87.1 0-173.29-17.79-253.27-52.28a639.5 639.5 0 0 1-211.87-148.28c-125.88-129.78-195.28-304.11-193.04-484.9a673 673 0 0 1 48.17-260.35 672.8 672.8 0 0 1 144.87-221.609 634.201 634.201 0 0 1 718.91-150.103 634.1 634.1 0 0 1 211.36 150.103 665.7 665.7 0 0 1 146.57 221.139 665.5 665.5 0 0 1 48.57 260.82m-425.18-462.613c-51.73-100.934-119.44-159.813-198.5-175.794-161.08-32.383-303.23 132.897-356.22 396.167-22.86 118-28.38 238.71-16.4 358.31a999.7 999.7 0 0 0 97.99 346.54c51.73 100.52 119.44 159.4 198.92 175.38 160.66 32.38 307.01-140.05 360.42-405.84 45-224.16 21.45-494.58-86.21-694.763M5073.12 1724.71V681.304h-915.56v31.542c122.38 18.084 180.42 110.186 126.17 259.905-287.66 778.029-270.84 743.129-287.66 805.369-18.09-59.72-59.72-206.91-126.17-391.54-66.45-184.62-111.87-307.01-129.95-361.68-70.24-215.746-46.68-294.39 67.71-309.53v-34.066h-593.83v34.066c88.74 18.084 168.22 119.438 231.73 301.54l90.84 236.77c100.09 255.7 217.85 608.97 256.96 728.41h197.24c63.51-184.62 318.36-925.23 352.43-998.825a583.2 583.2 0 0 1 126.17-195.139 264.08 264.08 0 0 1 176.63-73.598 133.3 133.3 0 0 1 55.11 7.591 133.4 133.4 0 0 1 47.22 29.421 133.4 133.4 0 0 1 31.1 46.128 133.4 133.4 0 0 1 9.56 54.803v872.239c0 145.51-70.23 213.22-143.41 223.74v33.64h567.33v-33.64c-77.38-10.52-139.62-78.23-139.62-223.74M8651.28 0h-995.04v681.304h995.04l-196.4-340.652zM8705.83 633.361v47.943h-5.04v-47.943h-19.77v-4.627h42.06v4.627zM8754.99 681.304l-18.09-45.42v45.42h-4.62v-52.57h6.73l18.08 45.841 18.09-45.841h6.72v52.57h-5.04v-45.42l-17.67 45.42z" style="fill:#232426;fill-rule:nonzero"/></svg>
