<svg xmlns="http://www.w3.org/2000/svg" xml:space="preserve" style="fill-rule:evenodd;clip-rule:evenodd;stroke-linejoin:round;stroke-miterlimit:2" viewBox="0 0 8782 2582"><path d="M0 0h8782v2582H0z" style="fill:#ebebeb"/><path d="M4723.72 414.252a163.22 163.22 0 0 1 46.01-114.423 163.25 163.25 0 0 1 112.93-49.573c43.33.506 84.75 17.95 115.4 48.593a165.95 165.95 0 0 1 48.59 115.403 162.86 162.86 0 0 1-49.46 113.037 162.86 162.86 0 0 1-114.53 45.895 160.54 160.54 0 0 1-111.94-46.999 160.54 160.54 0 0 1-47-111.933m1272.23 345.911c77.88 0 127.78 43.218 127.78 137.507a912.3 912.3 0 0 1-67.39 267.22c-62.32 167.6-127.25 359.86-197.89 580.81-25.14-85.5-74.62-228.59-166.33-467.45-21.69-59.47-43.38-118.94-65.06-178.41a753 753 0 0 1-55.32-226.322 102.7 102.7 0 0 1 2.99-42.809c4-13.886 10.92-26.809 20.25-37.833a102.6 102.6 0 0 1 33.98-26.218 102.5 102.5 0 0 1 41.73-10.001v-31.553h-545.36v31.553c74.45 7.015 134.83 78.014 214.25 289.033 115.7 306.05 231.39 612.1 347.08 918.15a371 371 0 0 1 30.98 165.48 371 371 0 0 1-45.39 162.12c-39.02 87.01-96.74 130.1-164 130.1-85.57 0-127.77-37.47-127.77-110.62 0-29.2 55.71-86.89 55.71-142.19 0-77.88-60.36-113.35-127.77-113.35-21.35-.74-42.66 3.06-62.44 11.15a151.3 151.3 0 0 0-52.37 35.79 151.4 151.4 0 0 0-33.06 54.13 151.3 151.3 0 0 0-7.95 62.92 279.34 279.34 0 0 0 89.45 193.19 279.29 279.29 0 0 0 199.59 74.04c35.89 1.23 71.71-4.63 105.32-17.26a272.7 272.7 0 0 0 90.62-56.37c28.83-21.42 65.11-96.33 84.53-132.44a585 585 0 0 0 36.23-89.21c16.75-40.89 26.53-74.52 33.5-96.2 6.98-21.74 21.83-58.13 38.96-113.37l38.94-122.7c99.08-308.79 198.67-595.06 296.45-843.35 55.32-137.53 127.78-219.318 163.99-236.06a205.9 205.9 0 0 1 62.33-21.814v-31.554h-396.56zM2191.72 1899.96c-70.07-12.07-130.11-74.75-130.11-207.24V95.609l-397.32 86.088v33.89c67.37-7.399 135.17 52.966 135.17 180.746V1692.72c0 125.44-67.8 197.5-135.17 207.24-6.36.77-12.73 1.55-19.09 2.33a208.1 208.1 0 0 1-100.51-17.92 299.96 299.96 0 0 1-135.94-125.04c-61.42-98.69-122.84-197.37-184.25-296.05a338.6 338.6 0 0 0-164.76-136.16 338.6 338.6 0 0 0-213.486-10.31l207.236-229.05c155.04-172.484 300.85-284.144 438.62-329.934v-31.554h-454.59v31.554c114.41 44.621 113.74 143.655-24.15 305.794-97.129 113.35-194.254 226.71-291.379 340.06V95.22l-397.719 86.477v33.89c67.38 0 135.169 67.384 135.169 185.421V1692.72c0 142.24-65.116 197.5-135.169 207.24v31.16h527.824v-31.16c-87.025-12.1-130.105-78.16-130.105-207.24v-238.4l113.355-123.48c91.542 150.23 183.084 300.46 274.624 450.7 65.04 108.25 125.03 151.52 221.65 151.52h916.97v-24.54c-2.36-.31-27.97-3.75-56.87-8.56m1223.15 3.5v31.56c-3.38 1.21-270.85 95.95-352.14-67.79a331.6 331.6 0 0 1-35.06-139.84 436.7 436.7 0 0 1-162.88 173.66 436.76 436.76 0 0 1-229.77 62.4c-194.8 0-335-91.57-335-291.77a251.5 251.5 0 0 1 43.62-142.17c57.66-86.49 125.07-132.46 250.48-180.75 62.74-23.78 116.96-40.94 155.81-52.98 39.99-12.4 96.18-24.58 155.81-35.84 40.64-9.74 81.29-19.47 121.93-29.21v-144.52c0-240.781-103.66-350.588-248.14-350.588-113.35 0-178.4 74.798-178.4 161.658 0 47.89 33.89 116.89 33.89 168.67 0 67.37-60.37 116.86-144.52 116.86-84.11 0-125.05-65.01-125.05-151.92 0-86.649 43.04-166.18 132.45-233.721a482.62 482.62 0 0 1 296.04-101.28c338.52 0 486.15 160.499 491.61 513.021v537.96c1.15 34.2 10.72 175.71 129.32 156.59m-387.2-636.51c-14.44 7.42-48.17 19.57-103.62 38.95-36.87 13.64-73.75 27.27-110.63 40.9-28.08 13.27-48.52 24.28-89.2 45.97a297.5 297.5 0 0 0-84.53 60.39 268.74 268.74 0 0 0-67.39 165.93c0 142.2 77.92 219.32 194.77 219.32a272.7 272.7 0 0 0 173.73-69.73 233.66 233.66 0 0 0 65.51-84.09 233.8 233.8 0 0 0 21.36-104.45zm4462.16 63.89a627.4 627.4 0 0 1-45.31 242.7 627.6 627.6 0 0 1-135.43 206.43 592.3 592.3 0 0 1-196.25 137.34 592.3 592.3 0 0 1-234.58 48.43c-80.67 0-160.51-16.48-234.59-48.43a592.5 592.5 0 0 1-196.24-137.34c-116.59-120.2-180.87-281.68-178.8-449.13a623.3 623.3 0 0 1 44.62-241.15 623.2 623.2 0 0 1 134.18-205.265 587.5 587.5 0 0 1 195.78-139.031 587.5 587.5 0 0 1 235.05-49.077c80.89 0 160.93 16.711 235.06 49.077a587.4 587.4 0 0 1 195.77 139.031 616.8 616.8 0 0 1 135.76 204.825 616.6 616.6 0 0 1 44.98 241.59m-393.82-428.496c-48.06-93.774-110.87-148.074-183.86-162.827-149.17-29.99-280.85 123.063-329.94 366.943a1144.7 1144.7 0 0 0-15.19 331.89 926.2 926.2 0 0 0 90.76 320.98c48.07 93.41 110.89 147.69 184.25 162.44 148.79 29.99 284.36-129.69 333.83-375.91 41.69-207.63 19.87-458.1-79.85-643.516M5022.5 1692.72V726.272h-848.03v29.216c113.34 16.748 167.12 102.049 116.86 240.735-254.56 688.517-251.57 689.667-265.06 740.797-.11.42-.71 2.69-1.38 5.17-16.73-55.24-55.32-191.66-116.86-362.66-61.39-170.55-103.63-284.41-120.37-335-65.02-199.738-43.29-272.674 62.72-286.704v-31.554h-550.03v31.554c82 16.711 155.68 110.261 214.64 279.294 28.04 73.11 56.09 146.21 84.14 219.31 92.66 236.74 201.72 563.88 238 674.69h182.7c59.1-171.83 294.89-857.04 326.43-925.16a540.2 540.2 0 0 1 116.86-180.745 244.64 244.64 0 0 1 163.61-68.169c17.3-1.27 34.73 1.131 51.04 7.031a123.7 123.7 0 0 1 43.74 27.251 123.8 123.8 0 0 1 28.81 42.726 123.8 123.8 0 0 1 8.85 50.76v807.906c0 134.81-65.08 197.5-132.83 207.24v31.16h525.48v-31.16c-71.62-9.74-129.32-72.4-129.32-207.24M8336.74 95.22H7415.1v631.052h921.64c-60.64-105.175-121.27-210.35-181.91-315.526 60.64-105.175 121.27-210.351 181.91-315.526M8387.27 681.866v44.406h-4.67v-44.406h-18.31v-4.286h38.96v4.286zM8432.8 726.272c-5.58-14.023-11.17-28.046-16.75-42.07v42.07h-4.28V677.58h6.23c5.58 14.153 11.17 28.306 16.75 42.46 5.58-14.154 11.17-28.307 16.75-42.46h6.23v48.692h-4.67v-42.07c-5.46 14.024-10.91 28.047-16.37 42.07z" style="fill:#232426;fill-rule:nonzero"/></svg>
