<svg xmlns="http://www.w3.org/2000/svg" xml:space="preserve" style="fill-rule:evenodd;clip-rule:evenodd;stroke-linejoin:round;stroke-miterlimit:2" viewBox="0 0 9000 3000"><path d="M0 0h9000v3000H0z" style="fill:#fff"/><path d="M4903.49 584.786a170.38 170.38 0 0 1 48.02-119.443 170.43 170.43 0 0 1 117.88-51.748 173.25 173.25 0 0 1 120.47 50.725 173.2 173.2 0 0 1 50.72 120.466 169.97 169.97 0 0 1-51.63 117.996 170 170 0 0 1-119.56 47.909 167.55 167.55 0 0 1-116.84-49.061 167.52 167.52 0 0 1-49.06-116.844m1328.04 361.087c81.29 0 133.39 45.115 133.39 143.537a952.2 952.2 0 0 1-70.35 278.95c-65.06 174.95-132.83 375.65-206.57 606.29-26.24-89.23-77.88-238.59-173.63-487.96-22.64-62.08-45.28-124.16-67.91-186.24-31.4-75.26-50.87-154.98-57.75-236.25a107.1 107.1 0 0 1 3.12-44.69 107.2 107.2 0 0 1 21.14-39.489 107.1 107.1 0 0 1 35.47-27.367 107.1 107.1 0 0 1 43.57-10.441v-32.936h-569.29v32.936c77.71 7.324 140.74 81.437 223.64 301.717 120.78 319.48 241.54 638.95 362.31 958.43a387.2 387.2 0 0 1 32.34 172.74 387.2 387.2 0 0 1-47.38 169.23c-40.74 90.83-100.99 135.81-171.2 135.81-89.32 0-133.37-39.12-133.37-115.47 0-30.48 58.15-90.71 58.15-148.43 0-81.3-63.01-118.32-133.37-118.32-22.29-.78-44.54 3.19-65.18 11.64a157.9 157.9 0 0 0-54.67 37.36 158.1 158.1 0 0 0-34.51 56.5 158.1 158.1 0 0 0-8.3 65.68c3.29 76.91 36.85 149.41 93.37 201.66a291.58 291.58 0 0 0 208.36 77.3c37.46 1.28 74.84-4.84 109.93-18.03a284.8 284.8 0 0 0 94.6-58.83c30.09-22.37 67.97-100.57 88.24-138.25a609.4 609.4 0 0 0 37.81-93.13c17.49-42.69 27.7-77.79 34.97-100.43 7.3-22.69 22.8-60.67 40.67-118.33 13.55-42.7 27.1-85.39 40.66-128.08 114.33-356.34 217.05-645.73 309.45-880.36 57.75-143.56 133.39-228.938 171.18-246.415a215 215 0 0 1 65.07-22.771v-32.938h-413.96zM2260.4 2135.67c-73.15-12.6-135.82-78.02-135.82-216.33V252.164l-414.75 89.865v35.376c70.32-7.724 141.09 55.29 141.09 188.676V1919.34c0 130.95-70.77 206.16-141.09 216.33-6.65.82-13.29 1.63-19.93 2.44a217.16 217.16 0 0 1-104.92-18.71 313.13 313.13 0 0 1-141.91-130.53l-192.33-309.03a353.4 353.4 0 0 0-171.99-142.13 353.38 353.38 0 0 0-222.849-10.77c72.109-79.69 144.219-159.39 216.329-239.09 161.85-180.06 314.05-296.617 457.86-344.416v-32.938h-474.53v32.938c119.43 46.579 118.73 149.956-25.21 319.206q-152.085 177.495-304.163 354.99V251.757l-415.169 90.272v35.376c70.336 0 141.1 70.341 141.1 193.556V1919.34c0 148.49-67.973 206.17-141.1 216.33v32.53H862v-32.53c-90.844-12.63-135.813-81.58-135.813-216.33v-248.85l118.328-128.91c95.558 156.83 191.115 313.65 286.675 470.48 67.89 113 130.51 158.17 231.37 158.17h957.2v-25.61c-2.46-.33-29.19-3.92-59.36-8.95m1276.81 3.66v32.94c-3.52 1.26-282.73 100.17-367.59-70.76a346.2 346.2 0 0 1-36.59-145.98A455.86 455.86 0 0 1 2963 2136.81a455.9 455.9 0 0 1-239.86 65.14c-203.34 0-349.7-95.59-349.7-304.56a262.7 262.7 0 0 1 45.54-148.42c60.19-90.29 130.56-138.26 261.47-188.68 65.45-24.8 122.02-42.7 162.65-55.3 41.74-12.94 100.39-25.66 162.64-37.41 42.43-10.17 84.86-20.33 127.29-30.5v-150.86c0-251.34-108.21-365.964-259.03-365.964-118.33 0-186.23 78.079-186.23 168.754 0 49.99 35.37 122.01 35.37 176.07 0 70.32-63.01 121.99-150.86 121.99-87.79 0-130.53-67.87-130.53-158.59 0-90.45 44.93-173.47 138.26-243.977a503.8 503.8 0 0 1 309.03-105.724c353.37 0 507.48 167.541 513.17 535.531v561.56c1.21 35.7 11.2 183.42 135 163.46m-404.18-664.43c-15.08 7.74-50.29 20.43-108.17 40.66-38.49 14.23-76.99 28.46-115.48 42.69-29.32 13.85-50.66 25.34-93.12 47.99a310.7 310.7 0 0 0-88.24 63.03 280.53 280.53 0 0 0-70.34 173.22c0 148.43 81.33 228.93 203.31 228.93a284.58 284.58 0 0 0 181.35-72.78 244 244 0 0 0 68.39-87.79 244.2 244.2 0 0 0 22.3-109.02zm4657.93 66.68a655.003 655.003 0 0 1-188.68 468.84 618.3 618.3 0 0 1-204.85 143.37 618.4 618.4 0 0 1-244.87 50.55c-84.21 0-167.56-17.2-244.89-50.55a618.4 618.4 0 0 1-204.85-143.37c-121.71-125.48-188.81-294.04-186.65-468.84a650.8 650.8 0 0 1 46.58-251.72 650.5 650.5 0 0 1 140.07-214.27 613.3 613.3 0 0 1 204.37-145.134 613.2 613.2 0 0 1 245.37-51.23 613.144 613.144 0 0 1 449.72 196.364 643.6 643.6 0 0 1 141.71 213.81 643.5 643.5 0 0 1 46.97 252.18m-411.1-447.29c-50.17-97.885-115.74-154.568-191.93-169.969-155.72-31.305-293.18 128.459-344.42 383.049a1195.4 1195.4 0 0 0-15.86 346.44 966.8 966.8 0 0 0 94.75 335.06c50.18 97.52 115.76 154.18 192.33 169.57 155.32 31.31 296.84-135.38 348.48-392.39 43.51-216.74 20.74-478.21-83.35-671.76m-2164.49 825.05V910.496h-885.23v30.497c118.31 17.483 174.45 106.527 121.99 251.297-265.73 718.72-262.62 719.93-276.69 773.3-.12.43-.75 2.81-1.44 5.4-17.47-57.65-57.75-200.07-121.99-378.58-64.08-178.03-108.18-296.88-125.65-349.7-67.88-208.5-45.19-284.631 65.47-299.276v-32.938h-574.17v32.938c85.61 17.444 162.52 115.096 224.06 291.556 29.28 76.31 58.55 152.62 87.83 228.92 96.74 247.13 210.58 588.63 248.45 704.29h190.71c61.7-179.37 307.84-894.63 340.76-965.74a563.8 563.8 0 0 1 121.99-188.68 255.36 255.36 0 0 1 170.78-71.161 129 129 0 0 1 53.28 7.34 129.2 129.2 0 0 1 45.66 28.447 129.25 129.25 0 0 1 30.07 44.604c6.76 16.79 9.92 34.89 9.24 52.98v843.35c0 140.73-67.94 206.17-138.66 216.33v32.53h548.54v-32.53c-74.76-10.16-135-75.57-135-216.33M8675.02 251.757h-962.08v658.739h962.08c-63.3-109.79-126.59-219.58-189.89-329.37 63.3-109.789 126.59-219.579 189.89-329.369M8727.77 864.141v46.355h-4.88v-46.355h-19.11v-4.474h40.66v4.474zM8775.3 910.496l-17.49-43.916v43.916h-4.47v-50.829h6.51c5.82 14.774 11.65 29.549 17.48 44.323l17.49-44.323h6.5v50.829h-4.88V866.58c-5.69 14.639-11.39 29.277-17.08 43.916z" style="fill:#232426;fill-rule:nonzero"/></svg>
