<svg clip-rule="evenodd" fill-rule="evenodd" stroke-linejoin="round" stroke-miterlimit="2" viewBox="0 0 3000 1000" xmlns="http://www.w3.org/2000/svg" xmlns:xlink="http://www.w3.org/1999/xlink"><clipPath id="a"><path clip-rule="evenodd" d="m1.39 1.27h477.23v112.46h-477.23z"/></clipPath><clipPath id="b"><path clip-rule="evenodd" d="m5.8 9.23h57.87v99.54h-57.87z"/></clipPath><path d="m1 3h2913v968h-2913z" fill="#fff" transform="matrix(1.029866 0 0 1.033058 -1.029866 -3.099174)"/><g clip-path="url(#a)" transform="matrix(5.93750048 0 0 5.93750048 43 170.197917)"><path d="m75.07 10.42c-5.61-2.13-11.7-3.29-18.06-3.29-1.65 0-3.29.08-4.9.23 10.38 19.3 16.49 42.91 16.49 68.41 0 4.89-.23 9.71-.66 14.45 2.41-1.65 4.48-3.37 5.52-4.72 1.65-2.13 2.48-4.19 3.38-8.15 1.34-6.05.66-11.23-2.48-21.17-2.32-7.25-4.26-16.08-5-22.73-.38-3.71-.07-8.66.93-12.17.73-2.54 2.1-7.33 4.79-10.86m32.58 24.68c2.38-1.08 3.75-2.85 4.77-4.93 1.1-2.44 1.94-5.98-.87-10.9-2.05-3.73-6.71-7.01-11.49-7.05-3.35-.03-6.28.97-8.59 2.23 6.91 5.46 12.49 12.53 16.18 20.64m-5.04 45.83c-.15-16.07-6.33-25.99-13.52-36.82-6.65-10.03-5.79-21.12-2.44-25.83.24-.29.54-.62.91-.97 6.44 4.83 11.7 11.14 15.27 18.44-2.29-.36-4.58-1.48-6.18-2.96 0 0-3.81-2.62-2.42.07 1.47 2.95 3.43 4.71 7.72 5.97.83.24 1.64.39 2.45.47 2.32 5.83 3.59 12.18 3.59 18.83 0 8.2-1.93 15.94-5.37 22.81m6.57-42.09c5.27-1.49 9.32-6.09 10.14-10.74 1.24-7 .09-14.53-6.39-20.37-4.33-3.85-12.16-6.4-18.88-6.1-4.71.16-11 1.84-15.38 5.26-6.66-2.82-13.99-4.38-21.68-4.38-29.24-.02-53.2 22.54-55.45 51.19-.11 1.4-.17 2.81-.17 4.24v.17c0 30.72 24.9 55.62 55.62 55.62s55.62-24.9 55.62-55.62c0-6.78-1.21-13.27-3.43-19.28" fill="#ee50f6"/><g clip-path="url(#b)" opacity=".1"><path d="m62.71 108.42c.64-5.93.97-12 .97-18.17 0-31.05-8.38-59.41-22.19-81.02-20.68 6.48-35.69 25.79-35.69 48.61 0 28.13 22.8 50.93 50.93 50.93 2.02 0 4.01-.12 5.97-.35" fill="#140432" fill-rule="nonzero"/></g><path d="m22.82 82.74c1.31 3.57 4.13 6.57 7.98 7.97 6.94 2.53 14.61-1.05 17.14-7.99 1.12-3.07 1.04-6.28 0-9.12l-25.13 9.15z" fill="#fff" fill-rule="nonzero"/><path d="m41.72 82.06c-.52 1.43-2.11 2.18-3.55 1.65-1.44-.52-2.18-2.11-1.65-3.55.52-1.43 2.11-2.18 3.55-1.65 1.44.52 2.18 2.11 1.65 3.55m-14.22-1.02c1.09 2 2.88 3.63 5.19 4.47 5.03 1.83 10.58-.76 12.41-5.79.63-1.74.74-3.54.39-5.24l-18 6.55z" fill="#140432"/><g fill-rule="nonzero"><path d="m66.15 101.92c2.35-1.4 4.85-3.1 7.46-5.24 10.36-10.59 10.9-19.91 9.24-30.26-.82-5.21-4.1-15.59-5.9-18.68-.15-.26-2.94-7.58-2.94-7.58-4.82-14.99-1.39-31.12 12.42-37.2.11-.05-24.44 6.36-18.66 30.44 1.56 6.49 4.01 15.46 6.32 22.71 3.14 9.93 3.82 15.1 2.48 21.15-.89 3.95-1.72 6.01-3.37 8.14-1.33 1.73-3.35 3.41-5.52 4.9-.37 3.94-.88 7.82-1.53 11.64" fill="#b900d2"/><path d="m93.99 31.73c.26.27.57.56.93.87 3.09 2.63 7.26 5.1 12.12 4.2 3.25-.6 7.88-4.37 7.88-11.12 0-9.46-7.36-16.2-15.45-16.2-7.67 0-13.96 5.45-14.59 12.94.37-1.6.96-2.98 1.79-4.13.24-.29.54-.62.91-.97 0 0 0-.16 1.89-1.57 1.16-.86 2.02-1.27 2.02-1.27 2.3-1.26 5.23-2.26 8.58-2.23 4.78.04 9.43 3.32 11.48 7.04 2.81 4.92 1.97 8.45.87 10.89-1.02 2.07-2.39 3.85-4.76 4.92 0 0-.55.29-2.41.53s-2.41.1-2.41.1c-2.28-.36-4.58-1.48-6.17-2.96 0 0-2.23-1.54-2.65-1.05" fill="#b900d2"/><path d="m76.48 78.82c.34.41.65.83.93 1.28 1.78 2.75 3.39 7.15.12 9.29-1.94 1.26-4.79.81-6.52-.91-1.7-1.7-2.2-4.45-1.38-6.62.67-1.74 2.29-3.73 4.22-4.15 1.05-.2 1.95.34 2.62 1.12" fill="#980e9d"/><path d="m70.91 83.62c.17-1.1.6-2.13 1.27-3 .46-.68 1.22-1.36 2.04-1.15.59.14.99.72 1.23 1.29.85 2.12-.29 4.78-2.29 5.67-.73.31-1.53.42-1.92-.45-.33-.75-.45-1.57-.33-2.36" fill="#140432"/><path d="m76.39 63.15c.46.19.91.42 1.33.69 2.7 1.57 5.98 4.59 4.17 7.83-1.09 1.94-3.74 2.79-5.94 2.07s-3.81-2.8-4.04-5.01c-.18-1.78.31-4.17 1.78-5.37.8-.65 1.79-.56 2.7-.21" fill="#980e9d"/><path d="m74.41 70.33c-.49-1.07-.71-2.24-.64-3.39 0-.88.23-1.89 1.07-2.21.58-.24 1.29.07 1.84.43 2.02 1.35 2.56 4.35 1.35 6.29-.45.73-1.1 1.27-1.95.75-.73-.4-1.28-1.18-1.66-1.87" fill="#140432"/><path d="m73.55 50.06c.41.17.82.35 1.21.56 2.41 1.28 5.36 3.82 3.82 6.69-.9 1.72-3.22 2.56-5.15 2.01s-3.42-2.36-3.66-4.26c-.19-1.55.21-3.66 1.46-4.73.63-.61 1.48-.58 2.31-.27" fill="#980e9d"/><path d="m72.08 56.25c-.44-.84-.64-1.77-.59-2.71 0-.69.14-1.53.85-1.83.5-.2 1.05 0 1.47.26 1.66 1.05 2.15 3.44 1.2 5.03-.36.59-.88 1.05-1.57.66-.59-.24-1.03-.85-1.36-1.42" fill="#140432"/><path d="m70.38 38.42c.33.19.65.39.96.61 1.9 1.41 4.09 3.95 2.37 6.2-1.01 1.35-3.11 1.79-4.69 1.07-1.6-.71-2.6-2.42-2.57-4.1.03-1.34.66-3.1 1.88-3.87.65-.42 1.39-.26 2.05.07" fill="#980e9d"/><path d="m68.32 43.55c-.28-.74-.26-1.56-.14-2.36.1-.59.35-1.29.95-1.44.43-.09.88.13 1.22.4 1.27 1.07 1.36 3.18.37 4.39-.39.44-.87.78-1.43.36-.46-.35-.79-.82-.96-1.36" fill="#140432"/><path d="m69.3 26.98c.25.25.48.52.68.8 1.33 1.78 2.61 4.66.4 6.25-1.33.95-3.35.8-4.6-.27-1.25-1.06-1.69-2.89-1.16-4.41.41-1.21 1.49-2.64 2.84-3.02.67-.17 1.33.17 1.83.65" fill="#980e9d"/><path d="m65.62 30.95c-.01-.82.18-1.63.57-2.35.28-.55.74-1.18 1.39-1.13.23.04.45.12.64.25s.35.3.46.49c.91 1.43.4 3.49-1.02 4.42-.51.33-1.11.52-1.53-.05-.35-.43-.49-1.07-.52-1.64" fill="#140432"/><path d="m71.6 16.57c.15.3.28.61.39.93.68 1.97.97 4.92-1.52 5.75-1.5.49-3.3-.2-4.13-1.52-.82-1.32-.68-3.08.26-4.3.75-.99 2.15-1.97 3.49-1.95.68.03 1.18.5 1.5 1.08" fill="#980e9d"/><path d="m67.06 18.87c.24-.72.64-1.38 1.19-1.92.41-.4.99-.82 1.56-.63.19.09.36.22.49.39s.22.36.25.56c.42 1.49-.69 3.17-2.18 3.61-.56.18-1.14.16-1.33-.44-.19-.48-.12-1.09 0-1.58" fill="#140432"/><path d="m76.55 8.16c.03.28.04.57.02.85-.09 1.77-.79 4.2-3.06 4.15-1.35-.03-2.57-1.09-2.82-2.36s.44-2.64 1.59-3.35c.91-.57 2.36-.96 3.43-.58.53.22.78.73.84 1.29" fill="#980e9d"/><path d="m72.21 8.77c.37-.48.88-.86 1.46-1.09.42-.19.98-.34 1.32-.06.25.21.3.57.26.89-.14 1.21-1.45 2.14-2.67 2.09-.44-.02-.88-.18-.87-.68.05-.42.23-.82.51-1.15" fill="#140432"/><path d="m84.1 3.01c-.05.22-.12.44-.21.65-.52 1.33-2.77 1.89-3.32 1.77-1.08-.23-1.83-.78-1.68-1.85.09-.52.33-1.01.7-1.4s.85-.67 1.38-.8c.85-.21 2.09-.17 2.79.41.39.3.43.76.35 1.21" fill="#980e9d"/><path d="m80.36 2.26c.39-.23.86-.4 1.36-.5.36-.09.84-.13 1.07.03.17.12.12.31.05.47-.34.61-1.53 1.04-2.52.97-.37-.03-.68-.12-.55-.39.11-.22.32-.42.6-.58" fill="#140432"/><g fill="#160035"><path d="m140.3 29.66h18.59v20.84l15.81-20.84h21.62l-19.39 24.19 19.78 31.5h-22.16l-10.89-17.66-4.77 5.81v11.85h-18.59z"/><path d="m196.72 29.66h27.17c9.85 0 16.13 2.47 20.02 6.37 3.34 3.34 5.08 7.48 5.08 13.21v.16c0 8.12-4.21 13.77-10.96 17.03l12.95 18.94h-21.21l-10.49-15.91h-3.97v15.91h-18.59zm26.61 26.49c4.45 0 7.15-1.99 7.15-5.41v-.16c0-3.58-2.78-5.33-7.07-5.33h-8.1v10.9z"/><path d="m293.02 29.65 23.28 55.71h-20.18l-2.94-7.48h-19.47l-2.86 7.48h-19.87l23.28-55.71zm-4.45 35.02-5.08-13.53-5.09 13.53z"/><path d="m316.3 29.66h18.59v20.84l15.81-20.84h21.62l-19.39 24.19 19.78 31.5h-22.16l-10.89-17.66-4.77 5.81v11.85h-18.59z"/><path d="m372.71 29.66h47.44v15.27h-29.16v5.65h24.31v13.45h-24.31v6.05h29.16v15.27h-47.44z"/><path d="m422.99 29.66h17.4l19.79 24.58v-24.58h18.43v55.69h-16.53l-20.65-25.7v25.7h-18.44z"/></g></g></g></svg>