<svg clip-rule="evenodd" fill-rule="evenodd" stroke-linejoin="round" stroke-miterlimit="2" viewBox="0 0 3000 1000" xmlns="http://www.w3.org/2000/svg"><path d="m476.685 414.314v-35.001a9.47 9.47 0 0 0 -3.803-7.569l-1.074-1.414-1.298-1.133c-4.014-2.28-4.88-2.768-5.282-2.966l-62.956-35.823v-146.122l60.252-34.239s4.222-2.41 4.439-2.542h.001c.359-.225.36-.225.96-.614l62.714-35.645 60.277 34.333c3.403 1.94 4.629 2.629 5.173 2.894l62.926 35.809v47.693c0 3.401 1.843 6.544 4.835 8.246l30.907 17.581c6.454 3.672 14.527-.912 14.526-8.247l-.015-79.375c.036-4.285-1.099-8.585-3.277-12.364-2.205-3.818-5.391-6.978-9.282-9.194l-3.971-2.235-72.815-41.433-3.969-2.204-71.631-40.737c-3.224-2.258-7.824-3.763-12.489-3.986-4.805-.22-9.545.91-13.735 3.285l-4.016 2.342-68.839 39.111c-1.778.997-2.365 1.326-2.951 1.656l-1.009.568-3.924 2.261-71.87 40.876c-3.687 1.754-7.233 4.961-9.683 8.863a24.3 24.3 0 0 0 -3.806 13.051v87.307l.019 87.168c-.043 4.273 1.093 8.573 3.275 12.362a24.9 24.9 0 0 0 9.293 9.194l3.948 2.228c49.706 28.284 72.582 41.3 72.865 41.458l3.957 2.197 16.545 10.454c6.553 3.893 14.783-.679 14.783-8.094m196.831-133.219c-6.454-3.658-14.513.926-14.513 8.254v8.898l-159.688-90.809-5.366-3.076c-4.862-2.762-10.863-2.473-15.39.697l-4.248 2.36-23.566 13.348-8.708 4.921-.795.449c-6.91 3.932-9.072 12.54-5.023 19.413l5.404 9.171 5.452 9.27c4.004 6.795 12.768 8.915 19.729 4.908 9.266-5.264 9.692-5.505 10.095-5.781l.081-.056 9.784-5.536 19.353 11.008-.018 170.938c0 7.733 6.369 14.004 14.227 14.004 3.605 0 7.05-1.338 9.682-3.737 17.538-13.941 17.557-13.956 21.168-16.828l.011-.01c3.7-2.934 5.647-7.471 5.243-12.11l.029-123.614 114.843 65.514c7.158 4.058 15.18 1.323 20.644-5.55l14.57-14.617a9.45 9.45 0 0 0 2.755-6.655v-29.002c0-3.407-1.849-6.554-4.849-8.254zm138.84 55.707q-2.717-.001-4.757-1.996c-1.356-1.333-2.04-2.887-2.04-4.662v-173.149c0-1.95.684-3.55 2.04-4.791q2.04-1.868 4.757-1.867h38.05q2.988-.001 4.892 1.867c1.267 1.241 1.901 2.841 1.901 4.791v137.988h81.537c1.989 0 3.668.663 5.025 1.996q2.04 1.999 2.04 4.929v28.236q0 2.932-2.04 4.795c-1.357 1.242-3.036 1.863-5.025 1.863zm145.665 0c-1.45 0-2.767-.575-3.941-1.733q-1.77-1.731-1.768-3.863.002-1.594.272-2.395l63.326-170.749c1.81-5.15 5.43-7.725 10.87-7.725h42.4c5.43 0 9.06 2.575 10.87 7.725l63.32 170.749c.19.533.28 1.333.28 2.395q0 2.132-1.77 3.863c-1.18 1.158-2.49 1.733-3.94 1.733h-35.34c-4.34 0-7.42-1.954-9.23-5.862l-9.79-25.836h-71.2l-9.79 25.836q-2.716 5.862-9.24 5.862zm65.769-71.658h48.38l-24.19-67.929zm147.58 71.658c-1.99 0-3.67-.621-5.03-1.863-1.35-1.241-2.03-2.841-2.03-4.795v-172.882c0-1.95.68-3.596 2.03-4.925 1.36-1.333 3.04-2 5.03-2h30.72c4.52 0 7.79 1.954 9.78 5.859l46.75 82.045 47.01-82.045c1.99-3.905 5.26-5.859 9.79-5.859h30.71c1.99 0 3.67.667 5.03 2 1.35 1.329 2.03 2.975 2.03 4.925v172.882c0 1.954-.68 3.554-2.03 4.795-1.36 1.242-3.04 1.863-5.03 1.863h-34.52c-1.81 0-3.39-.667-4.75-1.996q-2.04-2-2.04-4.662v-96.965l-29.35 52.746c-2.36 4.084-5.53 6.125-9.52 6.125h-14.67c-3.63 0-6.8-2.041-9.52-6.125l-29.08-52.746v96.965c0 1.954-.68 3.554-2.03 4.795-1.36 1.242-3.04 1.863-5.03 1.863zm225.58 0c-1.81 0-3.4-.667-4.76-1.996q-2.04-2-2.04-4.662v-172.882c0-1.95.64-3.596 1.9-4.925 1.27-1.333 2.91-2 4.9-2h83.98c23.01 0 40.13 4.617 51.37 13.854 11.23 9.233 16.85 22.374 16.85 39.423 0 8.524-2.32 15.894-6.93 22.107q-6.93 9.324-15.36 13.586 11.145 4.794 18.75 15.85c5.08 7.37 7.61 15.673 7.61 24.906 0 17.933-6.02 31.878-18.07 41.823-12.05 9.941-29.31 14.916-51.78 14.916zm78.27-112.684c6.71 0 11.87-1.775 15.5-5.329 3.62-3.554 5.43-8.167 5.43-13.85 0-5.507-1.76-9.99-5.3-13.453-3.53-3.466-8.74-5.195-15.63-5.195h-33.97v37.827zm2.45 76.718q10.605-.001 16.44-5.995 5.85-5.989 5.85-14.783c0-6.037-2-11.053-5.98-15.053-3.99-3.992-9.42-5.991-16.31-5.991h-36.42v41.822zm111.44 35.966c-1.81 0-3.4-.667-4.76-1.996q-2.04-2-2.04-4.662v-172.882c0-1.95.64-3.596 1.91-4.925 1.26-1.333 2.9-2 4.89-2h71.48c26.81 0 47.65 6.259 62.51 18.782 14.85 12.517 22.65 30.499 23.37 53.939q.27 7.725.27 20.512 0 12.785-.27 20.244c-1.81 48.656-29.99 72.988-84.52 72.988zm71.47-39.962c11.41 0 19.84-2.663 25.28-7.992 5.43-5.325 8.33-13.853 8.69-25.573.37-5.15.55-11.808.55-19.978s-.18-14.741-.55-19.712c-.36-11.366-3.49-19.757-9.37-25.173-5.89-5.416-14.54-8.125-25.96-8.125h-25.82v106.553zm106.54 39.962c-1.45 0-2.77-.575-3.94-1.733-1.19-1.154-1.77-2.442-1.77-3.863q0-1.594.27-2.395l63.32-170.749c1.82-5.15 5.44-7.725 10.88-7.725h42.39c5.44 0 9.06 2.575 10.87 7.725l63.33 170.749q.27.8.27 2.395 0 2.132-1.77 3.863c-1.17 1.158-2.48 1.733-3.94 1.733h-35.33q-6.525 0-9.24-5.862l-9.78-25.836h-71.21l-9.79 25.836c-1.8 3.908-4.88 5.862-9.23 5.862zm65.77-71.658h48.37l-24.18-67.929z" fill="#0ebac5" transform="matrix(1.17946 0 0 1.27158 -262.701 195.808)"/><path d="m2107.058 627.457c-2.359 0-4.328-.79-5.932-2.367q-2.407-2.37-2.407-6.099v-173.428h-56.413c-2.347 0-4.329-.79-5.933-2.368-1.604-1.584-2.406-3.614-2.406-6.098v-37.938c0-2.48.802-4.573 2.406-6.262 1.604-1.697 3.586-2.544 5.933-2.544h174.065c2.347 0 4.328.847 5.932 2.544 1.593 1.69 2.395 3.781 2.395 6.262v37.938c0 2.484-.802 4.514-2.395 6.098-1.604 1.578-3.585 2.368-5.932 2.368h-56.426v173.427c0 2.485-.802 4.52-2.394 6.099-1.604 1.578-3.586 2.367-5.933 2.367zm153.849 0c-2.123 0-3.998-.847-5.602-2.538q-2.407-2.542-2.407-5.928v-219.831c0-2.48.744-4.573 2.241-6.262q2.246-2.545 5.768-2.544h151.301c2.359 0 4.329.847 5.933 2.544 1.604 1.69 2.406 3.781 2.406 6.262v33.535q0 3.726-2.406 6.094c-1.604 1.583-3.574 2.373-5.933 2.373h-101.292v43.018h94.25c2.348 0 4.318.849 5.922 2.539q2.406 2.541 2.406 6.267v30.823q0 3.726-2.406 6.268c-1.604 1.69-3.574 2.543-5.921 2.543h-94.25v44.031h103.862c2.347 0 4.329.848 5.933 2.538 1.592 1.695 2.394 3.783 2.394 6.268v33.535c0 2.485-.802 4.52-2.394 6.099-1.604 1.578-3.586 2.367-5.933 2.367zm282.728 3.393c-20.723 0-38.356-3.159-52.887-9.484q-21.796-9.48-33.013-25.07c-7.49-10.379-11.44-21.674-11.865-33.87q0-3.045 2.088-5.08c1.38-1.352 3.043-2.03 4.965-2.03h42.626q3.857-.001 6.263 1.356c1.604.902 3.361 2.48 5.284 4.737 2.783 5.42 7.1 9.881 12.986 13.382 5.873 3.502 13.728 5.25 23.553 5.25 11.547 0 20.417-1.864 26.609-5.583 6.204-3.73 9.294-8.864 9.294-15.417 0-4.736-1.604-8.636-4.8-11.683q-4.813-4.577-15.392-8.132c-7.053-2.368-17.209-5.023-30.454-7.957-25.854-5.42-45.197-13.664-58.018-24.731-12.82-11.062-19.237-26.871-19.237-47.416 0-14.003 3.692-26.48 11.064-37.43 7.371-10.956 17.845-19.476 31.409-25.575 13.575-6.097 29.333-9.143 47.284-9.143 18.801 0 35.101 3.443 48.889 10.326 13.776 6.892 24.356 15.47 31.74 25.743 7.37 10.277 11.263 20.381 11.688 30.32 0 2.03-.637 3.783-1.923 5.25-1.285 1.467-2.878 2.199-4.8 2.199h-44.879c-4.706 0-8.338-2.03-10.898-6.099q-1.928-7.112-9.943-12.02c-5.343-3.274-11.971-4.912-19.874-4.912q-13.463.001-20.84 5.081c-4.907 3.385-7.372 8.354-7.372 14.903s3.22 11.687 9.624 15.411c6.416 3.73 18.376 7.508 35.903 11.35 20.086 3.834 36.056 8.635 47.921 14.394 11.854 5.754 20.617 13.213 26.279 22.351 5.673 9.15 8.492 20.726 8.492 34.723q0 23.032-12.49 39.968c-8.34 11.29-19.875 19.926-34.63 25.912-14.743 5.986-31.621 8.976-50.646 8.976m186.249-3.393c-2.347 0-4.329-.79-5.921-2.367q-2.406-2.37-2.406-6.099v-173.428h-56.414c-2.359 0-4.328-.79-5.932-2.368-1.604-1.584-2.406-3.614-2.406-6.098v-37.938c0-2.48.802-4.573 2.406-6.262 1.604-1.697 3.573-2.544 5.932-2.544h174.053c2.347 0 4.329.847 5.933 2.544 1.604 1.69 2.406 3.781 2.406 6.262v37.938c0 2.484-.802 4.514-2.406 6.098-1.604 1.578-3.586 2.368-5.933 2.368h-56.413v173.427q0 3.729-2.406 6.099c-1.604 1.578-3.574 2.367-5.921 2.367z"/></svg>