<svg clip-rule="evenodd" fill-rule="evenodd" stroke-linejoin="round" stroke-miterlimit="2" viewBox="0 0 3000 1000" xmlns="http://www.w3.org/2000/svg"><g fill="#0062ff" transform="matrix(2.6385 0 0 2.69122 161.299 97.4)"><path d="m397.382 244.212v-190.794h76.046q14.99 0 27.256 7.632 12.265 7.359 19.352 20.442 7.359 13.083 7.359 29.164 0 16.627-7.359 29.982-7.087 13.356-19.352 21.26t-27.256 7.904h-52.332v74.41zm23.714-97.578h52.876q8.178 0 14.72-4.633 6.54-4.906 10.357-13.083t3.816-18.262q0-9.812-3.816-17.444-3.817-7.632-10.357-12.265-6.543-4.634-14.72-4.634h-52.876zm194.121 100.303q-20.987 0-37.613-9.54-16.354-9.812-25.893-26.438-9.54-16.899-9.54-38.431 0-21.533 9.54-38.159 9.54-16.627 25.893-26.166 16.626-9.54 37.613-9.54 20.988 0 37.342 9.54 16.626 9.54 25.893 26.166 9.539 16.626 9.539 38.159t-9.539 38.431q-9.267 16.626-25.893 26.438-16.354 9.54-37.342 9.54m0-21.26q14.447 0 25.621-6.814 11.175-7.086 17.445-19.079 6.541-11.992 6.269-27.256.272-15.263-6.269-26.984-6.27-11.992-17.445-18.807-11.174-6.814-25.621-6.814-14.445 0-25.893 6.814-11.175 6.815-17.444 18.807-6.268 11.993-6.268 26.984 0 15.264 6.268 27.256 6.269 11.993 17.444 19.079 11.448 6.814 25.893 6.814m97.68-183.161h22.895v201.696h-22.895zm113.222 204.421q-18.262 0-33.253-9.54-14.718-9.812-23.44-26.711-8.721-16.898-8.722-38.158 0-21.533 8.994-38.159 8.995-16.627 23.986-26.166 15.264-9.54 34.07-9.54 11.176 0 20.442 3.271 9.54 3.271 16.9 9.267a51.7 51.7 0 0 1 12.265 13.628q4.905 7.631 6.541 16.355l-5.996-2.727.272-36.795h22.895v142.55h-22.895v-34.615l5.724-2.999q-1.908 7.904-7.36 15.264-5.178 7.359-13.082 13.082-7.632 5.452-17.172 8.722t-20.169 3.271m5.451-21.533q13.901 0 24.53-6.813 10.632-6.815 16.9-18.534 6.269-11.994 6.269-27.529 0-15.263-6.269-26.984-5.997-11.72-16.9-18.534-10.629-6.814-24.53-6.814-13.9 0-24.53 6.814t-16.9 18.534q-5.995 11.72-5.995 26.984t5.995 27.256q6.27 11.993 16.9 18.807t24.53 6.813m98.92 18.808v-142.55h22.896l.545 40.066-2.453-6.814q2.997-10.084 9.812-18.262 6.813-8.177 16.081-13.083 9.54-4.906 20.169-4.906c3.09 0 6 .273 8.72.818 2.91.364 5.27.909 7.09 1.635l-6.27 25.348a35 35 0 0 0 -7.359-2.452q-3.817-.818-7.087-.818-8.72 0-16.081 3.27-7.086 3.272-12.265 8.996-4.906 5.45-7.905 12.81-2.725 7.36-2.725 15.808v80.134z" fill-rule="nonzero"/><path d="m64.864 269.177c66.042 44.705 155.82 27.408 200.524-38.634 44.706-66.042 27.41-155.82-38.632-200.525s-155.821-27.408-200.526 38.634c-44.705 66.041-27.408 155.82 38.634 200.525m19.153 1.18c60.413 30.907 137.047 1.894 171.17-64.8 34.122-66.696 12.81-145.819-47.603-176.727-60.411-30.907-137.046-1.895-171.169 64.8-34.122 66.695-12.81 145.818 47.602 176.727"/><path d="m101.233 286.13c54.533 17.749 118.685-29.139 143.289-104.729 24.602-75.589.338-151.255-54.195-169.004s-118.684 29.139-143.287 104.729c-24.603 75.589-.339 151.255 54.193 169.004m16.682-5.745c46.151 9.844 96.055-40.736 111.463-112.971 15.406-72.236-9.516-138.775-55.668-148.618-46.151-9.844-96.054 40.735-111.462 112.971-15.407 72.235 9.516 138.774 55.667 148.618"/><path d="m130.567 292.297c36.489 3.895 72.904-56.965 81.336-135.937 8.433-78.971-14.311-146.149-50.799-150.045s-72.903 56.965-81.336 135.936 14.311 146.15 50.799 150.046m17.075-24.037c26.406-.417 46.974-53.874 45.938-119.399-1.034-65.526-23.281-118.307-49.687-117.889-26.407.417-46.974 53.874-45.939 119.4 1.035 65.525 23.281 118.305 49.688 117.888"/></g></svg>