<?xml version="1.0" encoding="UTF-8" standalone="no"?>
<!DOCTYPE svg PUBLIC "-//W3C//DTD SVG 1.1//EN" "http://www.w3.org/Graphics/SVG/1.1/DTD/svg11.dtd">
<svg width="100%" height="100%" viewBox="0 0 9000 3000" version="1.1" xmlns="http://www.w3.org/2000/svg" xmlns:xlink="http://www.w3.org/1999/xlink" xml:space="preserve" xmlns:serif="http://www.serif.com/" style="fill-rule:evenodd;clip-rule:evenodd;stroke-linejoin:round;stroke-miterlimit:2;">
    <g transform="matrix(1,0,0,1,9.09495e-13,-5.50231)">
        <rect x="0" y="0" width="9000" height="3000" style="fill:white;"/>
    </g>
    <g transform="matrix(19.9587,0,0,19.9587,-489.672,-353.755)">
        <path d="M378,148.8L380.4,148.8L380.4,146.5L378,146.5L378,148.8ZM373.9,148.8L376,148.8L376,143.3C376,141.3 375.1,140.4 373.3,140.4C371.9,140.4 371.1,141.1 370.6,142L370.6,140.6L368.6,140.6L368.6,148.9L370.7,148.9L370.7,144C370.7,142.7 371.3,142 372.6,142C373.1,142 373.5,142.2 373.7,142.5C373.9,142.8 374,143.4 374,144L374,148.8L373.9,148.8ZM366.6,146.5L364.6,146.5C364.5,147 364.1,147.6 363,147.6C361.8,147.6 361.2,146.8 361.1,145.2L366.7,145.2L366.7,144.5C366.7,142.2 365.6,140.3 362.9,140.3C360.4,140.3 359,142.1 359,144.6C359,147.2 360.3,148.9 362.9,148.9C365.1,149 366.4,148.1 366.6,146.5M364.6,143.9L361.1,143.9C361.2,142.6 361.8,141.7 362.9,141.7C364,141.7 364.5,142.5 364.6,143.9M349.6,151.7L351.7,151.7L351.7,147.7C352,148.4 352.9,149 354.1,149C356.1,149 357.6,147.5 357.6,144.6C357.6,141.5 356.1,140.3 354.3,140.3C353,140.3 352.1,141.1 351.7,141.8L351.7,140.4L349.7,140.4L349.7,151.7L349.6,151.7ZM351.7,145.1L351.7,144.2C351.7,142.8 352.5,141.9 353.6,141.9C355,141.9 355.5,142.9 355.5,144.7C355.5,146.6 354.8,147.6 353.6,147.6C352.3,147.5 351.7,146.5 351.7,145.1M340,151.7L342.1,151.7L342.1,147.7C342.4,148.4 343.3,149 344.5,149C346.5,149 348,147.5 348,144.6C348,141.5 346.5,140.3 344.7,140.3C343.4,140.3 342.5,141.1 342.1,141.8L342.1,140.4L340.1,140.4L340.1,151.7L340,151.7ZM342,145.1L342,144.2C342,142.8 342.8,141.9 343.9,141.9C345.3,141.9 345.8,142.9 345.8,144.7C345.8,146.6 345.1,147.6 343.9,147.6C342.7,147.5 342,146.5 342,145.1M332.8,142.9C332.8,142.2 333.2,141.7 334.2,141.7C335.1,141.7 335.6,142.2 335.6,143.3L335.6,143.7C333.8,143.8 332.6,143.9 331.7,144.3C330.9,144.7 330.5,145.4 330.5,146.4C330.5,147.9 331.5,148.8 333.2,148.8C334.4,148.8 335.3,148.3 335.7,147.5C335.9,148.4 336.4,148.8 337.7,148.8L338.3,148.8L338.3,147.3C337.8,147.3 337.6,147.1 337.6,146.6L337.6,143.6C337.6,141.4 336.7,140.4 334.2,140.4C332.1,140.4 330.9,141.4 330.8,143L332.8,143L332.8,142.9ZM333.7,147.5C332.9,147.5 332.5,147.1 332.5,146.4C332.5,146 332.6,145.7 332.9,145.5C333.3,145.2 334.1,145.1 335.6,145L335.6,145.2C335.6,146.8 334.6,147.5 333.7,147.5M326.7,148.8L328.8,148.8L328.8,143.3C328.8,141.3 327.9,140.4 326.1,140.4C324.7,140.4 323.9,141.2 323.5,141.9L323.5,136.6L321.4,136.6L321.4,148.8L323.5,148.8L323.5,144C323.5,142.7 324.1,142 325.4,142C325.9,142 326.3,142.2 326.5,142.5C326.7,142.8 326.8,143.4 326.8,144L326.8,148.8L326.7,148.8ZM311.2,148.8L311.1,149.1C310.8,150 310.4,150.3 309.5,150.3C309.2,150.3 308.9,150.3 308.7,150.2L308.7,151.8C308.8,151.8 309.2,151.9 309.8,151.9C311.8,151.9 312.5,151.1 313.2,149.2L316.1,140.6L314.1,140.6L312.7,145.2C312.4,146.1 312.3,146.7 312.3,146.7C312.3,146.7 312.2,146.1 311.9,145.2L310.4,140.6L308.3,140.6L311.2,148.8ZM307.3,143.3C307.2,141.3 305.7,140.3 303.7,140.3C301.2,140.3 299.7,142 299.7,144.6C299.7,147.3 301.1,148.9 303.7,148.9C305.7,148.9 307.3,147.8 307.4,145.8L305.4,145.8C305.4,146.5 305,147.5 303.7,147.5C302.2,147.5 301.8,146.1 301.8,144.6C301.8,143 302.3,141.7 303.7,141.7C304.7,141.7 305.2,142.4 305.3,143.3L307.3,143.3ZM293.1,142.9C293.1,142.2 293.5,141.7 294.5,141.7C295.4,141.7 295.9,142.2 295.9,143.3L295.9,143.7C294.1,143.8 292.9,143.9 292,144.3C291.2,144.7 290.8,145.4 290.8,146.4C290.8,147.9 291.8,148.8 293.5,148.8C294.7,148.8 295.6,148.3 296,147.5C296.2,148.4 296.7,148.8 298,148.8L298.6,148.8L298.6,147.3C298.1,147.3 297.9,147.1 297.9,146.6L297.9,143.6C297.9,141.4 297,140.4 294.5,140.4C292.4,140.4 291.2,141.4 291.1,143L293.1,143L293.1,142.9ZM294,147.5C293.2,147.5 292.8,147.1 292.8,146.4C292.8,146 292.9,145.7 293.2,145.5C293.6,145.2 294.4,145.1 295.9,145L295.9,145.2C295.9,146.8 294.9,147.5 294,147.5M285.1,148.8L287.3,148.8L290.2,140.5L288.2,140.5L286.7,145.1C286.4,145.9 286.3,146.8 286.3,146.8C286.3,146.8 286.1,146 285.9,145.1L284.4,140.5L282.3,140.5L285.1,148.8ZM278.8,148.8L280.9,148.8L280.9,140.5L278.8,140.5L278.8,148.8ZM278.8,139L280.9,139L280.9,137L278.8,137L278.8,139ZM272.3,148.8L274.4,148.8L274.4,144.6C274.4,143 275.3,142.4 276.8,142.4L277.2,142.4L277.2,140.5L277,140.5C275.9,140.5 274.7,141.2 274.3,142.3L274.3,140.6L272.3,140.6L272.3,148.8ZM262.5,151.7L264.6,151.7L264.6,147.7C264.9,148.4 265.8,149 267,149C269,149 270.5,147.5 270.5,144.6C270.5,141.5 269,140.3 267.2,140.3C265.9,140.3 265,141.1 264.6,141.8L264.6,140.4L262.6,140.4L262.6,151.7L262.5,151.7ZM264.6,145.1L264.6,144.2C264.6,142.8 265.4,141.9 266.5,141.9C267.9,141.9 268.4,142.9 268.4,144.7C268.4,146.6 267.7,147.6 266.5,147.6C265.2,147.5 264.6,146.5 264.6,145.1M256.8,146.5L254.8,146.5C254.7,147 254.3,147.6 253.2,147.6C252,147.6 251.4,146.8 251.3,145.2L256.9,145.2L256.9,144.5C256.9,142.2 255.8,140.3 253.1,140.3C250.6,140.3 249.2,142.1 249.2,144.6C249.2,147.2 250.5,148.9 253.1,148.9C255.2,149 256.5,148.1 256.8,146.5M254.8,143.9L251.3,143.9C251.4,142.6 252,141.7 253.1,141.7C254.2,141.7 254.7,142.5 254.8,143.9M243,146.5L244.1,145.2L246.2,148.8L248.5,148.8L245.5,143.7L248.3,140.5L246,140.5L243,144.1L243,136.5L240.9,136.5L240.9,148.7L243,148.7L243,146.5ZM233.7,142.9C233.7,142.2 234.1,141.7 235.1,141.7C236,141.7 236.5,142.2 236.5,143.3L236.5,143.7C234.7,143.8 233.5,143.9 232.6,144.3C231.8,144.7 231.4,145.4 231.4,146.4C231.4,147.9 232.4,148.8 234.1,148.8C235.3,148.8 236.2,148.3 236.6,147.5C236.8,148.4 237.3,148.8 238.6,148.8L239.2,148.8L239.2,147.3C238.7,147.3 238.5,147.1 238.5,146.6L238.5,143.6C238.5,141.4 237.6,140.4 235.1,140.4C233,140.4 231.8,141.4 231.7,143L233.7,143L233.7,142.9ZM234.7,147.5C233.9,147.5 233.5,147.1 233.5,146.4C233.5,146 233.6,145.7 233.9,145.5C234.3,145.2 235.1,145.1 236.6,145L236.6,145.2C236.5,146.8 235.6,147.5 234.7,147.5M217.1,148.8L219.2,148.8L219.2,144C219.2,142.8 219.8,142 221,142C221.5,142 221.9,142.2 222.1,142.5C222.3,142.8 222.4,143.4 222.4,144L222.4,148.9L224.5,148.9L224.5,144C224.5,142.7 225.1,142 226.3,142C226.8,142 227.2,142.1 227.4,142.5C227.6,142.9 227.7,143.4 227.7,144L227.7,148.9L229.8,148.9L229.8,143.4C229.8,141.4 228.9,140.5 227.1,140.5C225.6,140.5 224.7,141.4 224.4,142.2C224.1,141.1 223.3,140.5 221.9,140.5C220.6,140.5 219.7,141.2 219.3,142.1L219.3,140.7L217.3,140.7L217.3,148.8L217.1,148.8ZM211.3,146.5L209.3,146.5C209.2,147 208.8,147.6 207.7,147.6C206.5,147.6 205.9,146.8 205.8,145.2L211.4,145.2L211.4,144.5C211.4,142.2 210.3,140.3 207.6,140.3C205.1,140.3 203.7,142.1 203.7,144.6C203.7,147.2 205,148.9 207.6,148.9C209.8,149 211.1,148.1 211.3,146.5M209.3,143.9L205.8,143.9C205.9,142.6 206.5,141.7 207.6,141.7C208.8,141.7 209.2,142.5 209.3,143.9M193.2,148.8L195.2,141.3C195.5,140.1 195.6,139.4 195.6,139.4C195.6,139.4 195.7,140.1 196,141.3L198.1,148.8L200.3,148.8L203.5,137L201.5,137L199.6,144.3C199.3,145.5 199.2,146.2 199.2,146.2C199.2,146.2 199.1,145.4 198.8,144.2L196.8,136.9L194.7,136.9L192.7,144.2C192.4,145.4 192.3,146.1 192.3,146.1C192.3,146.1 192.2,145.3 191.9,144.1L190,136.8L187.8,136.8L191,148.6L193.2,148.6L193.2,148.8ZM443.6,107.5C443.4,104.6 441.3,102.7 437.2,102.7C432.9,102.7 430.7,105.1 430.7,108C430.7,110.9 432.4,112.4 435.4,112.8L438,113.1C439.8,113.3 440.2,113.9 440.2,115.1C440.2,116.5 439,117.3 437.2,117.3C434.9,117.3 434.2,116.1 434.1,114.9L430.2,114.9C430.4,118.2 432.8,120.1 437.2,120.1C441.2,120.1 444.1,118.2 444.1,114.6C444.1,111.7 442.6,110.2 439.4,109.8L436.7,109.4C435.2,109.2 434.6,108.6 434.6,107.5C434.6,106.3 435.6,105.5 437.2,105.5C438.9,105.5 439.8,106.4 439.9,107.5L443.6,107.5ZM422.8,119.6L427.1,119.6L427.1,108.6C427.1,104.6 425.3,102.7 421.6,102.7C418.8,102.7 417.1,104.2 416.2,105.8L416.1,105.8L416.1,103L412.1,103L412.1,119.5L416.3,119.5L416.3,109.8C416.3,107.3 417.5,105.7 420,105.7C421,105.7 421.8,106 422.3,106.7C422.8,107.4 422.8,108.5 422.8,109.6L422.8,119.6ZM400.9,105.6C403.6,105.6 404.6,107.9 404.6,111.4C404.6,114.8 403.6,117.2 400.9,117.2C398.2,117.2 397.2,114.9 397.2,111.4C397.2,108 398.3,105.6 400.9,105.6M400.9,120C405.7,120 408.9,116.7 408.9,111.3C408.9,106 405.9,102.7 400.9,102.7C395.9,102.7 392.8,106 392.8,111.3C392.9,116.7 395.8,120 400.9,120M385.5,119.6L389.7,119.6L389.7,103.1L385.5,103.1L385.5,119.6ZM385.4,99.9L389.6,99.9L389.6,96L385.4,96L385.4,99.9ZM374.5,98.4L374.5,99.6C374.5,102.7 374.1,103.1 372,103.1L371.4,103.1L371.4,106L374.1,106L374.1,114.9C374.1,118.3 375.8,119.8 379.1,119.8C380.5,119.8 381.7,119.6 382.1,119.6L382.1,116.5C382.1,116.5 381.3,116.6 380.6,116.6C378.9,116.6 378.3,115.9 378.3,114.2L378.3,106.1L382.1,106.1L382.1,103.1L378.3,103.1L378.3,98.4L374.5,98.4ZM357.9,103.1L353.8,103.1L353.8,114.3C353.8,118.2 355.6,120 359.3,120C362,120 363.7,118.6 364.5,116.9L364.6,116.9L364.6,119.6L368.6,119.6L368.6,103.1L364.4,103.1L364.4,112.1C364.4,115.2 363.2,116.8 360.7,116.8C359.7,116.8 358.9,116.5 358.5,115.8C358,115.1 357.9,114 357.9,112.9L357.9,103.1ZM345.4,119.6L349.6,119.6L349.6,95.2L345.4,95.2L345.4,119.6ZM333.9,105.6C336.6,105.6 337.6,107.9 337.6,111.4C337.6,114.8 336.6,117.2 333.9,117.2C331.2,117.2 330.2,114.9 330.2,111.4C330.2,108 331.2,105.6 333.9,105.6M333.9,120C338.7,120 341.9,116.7 341.9,111.3C341.9,106 338.9,102.7 333.9,102.7C328.9,102.7 325.8,106 325.8,111.3C325.8,116.7 328.8,120 333.9,120M322.3,102.3C322.1,98.3 319.6,95.5 313.9,95.5C308.5,95.5 305.3,98.5 305.3,102.5C305.3,106 307.4,108.4 311.4,109.1L314.9,109.8C317.5,110.3 318.5,111.3 318.5,113.1C318.5,115.1 317.2,116.8 313.9,116.8C310.9,116.8 309.3,115 309,112.8L304.5,112.8C304.7,117.4 308,120 313.8,120C319.7,120 323,117.2 323,112.4C323,108.9 321.1,106.7 316.8,105.9L313.3,105.3C310.9,104.8 309.9,103.8 309.9,102C309.9,100.1 311.4,98.7 313.9,98.7C316.6,98.7 317.8,100.4 318,102.3L322.3,102.3ZM284.9,119.7L284.7,120.3C284,122 283.4,122.7 281.4,122.7C280.8,122.7 280.2,122.6 279.8,122.5L279.8,125.6C280,125.7 280.7,125.8 282,125.8C286.1,125.8 287.5,124.2 288.8,120.3L294.7,103.1L290.6,103.1L287.7,112.4C287.2,114.1 286.9,115.4 286.9,115.4L286.8,115.4C286.8,115.4 286.6,114.1 286,112.4L283,103.1L278.8,103.1L284.9,119.7ZM277,108.7C276.8,104.6 273.8,102.7 269.8,102.7C264.8,102.7 261.8,106.1 261.8,111.4C261.8,116.8 264.7,120 269.8,120C273.9,120 277,117.9 277.2,113.7L273.2,113.7C273.1,115.2 272.3,117 269.9,117C266.9,117 266.2,114.2 266.2,111.2C266.2,108 267.3,105.5 269.9,105.5C271.9,105.5 272.9,106.9 273.1,108.6L277,108.6L277,108.7ZM248.4,107.9C248.5,106.6 249.3,105.5 251.2,105.5C253.1,105.5 254,106.5 254,108.8L254,109.6C250.4,109.8 247.9,110 246.2,110.9C244.5,111.8 243.7,113.2 243.7,115.1C243.7,118.1 245.8,119.9 249.2,119.9C251.6,119.9 253.3,118.9 254.3,117.2L254.4,117.2C254.8,119.1 255.9,119.7 258.3,119.7L259.5,119.7L259.5,116.7C258.4,116.7 258.1,116.3 258.1,115.2L258.1,109.1C258.1,104.7 256.2,102.7 251.3,102.7C247.1,102.7 244.6,104.7 244.5,107.8L248.4,107.8L248.4,107.9ZM250.2,117C248.7,117 247.8,116.1 247.8,114.8C247.8,114 248,113.4 248.6,113C249.5,112.4 251,112.1 253.9,112L253.9,112.5C253.9,115.7 252,117 250.2,117M232,119.6L236.3,119.6L242.1,103.1L238.1,103.1L235.1,112.2C234.6,113.9 234.2,115.5 234.2,115.5L234.1,115.5C234.1,115.5 233.8,113.9 233.2,112.2L230.3,103.1L226.1,103.1L232,119.6ZM219.2,119.6L223.4,119.6L223.4,103.1L219.2,103.1L219.2,119.6ZM219.2,99.9L223.4,99.9L223.4,96L219.2,96L219.2,99.9ZM206.8,119.6L211,119.6L211,111.1C211,107.9 212.8,106.7 215.7,106.7L216.5,106.7L216.5,102.8L216.2,102.8C213.9,102.8 211.7,104.2 210.8,106.4L210.7,106.4L210.7,103.1L206.8,103.1L206.8,119.6ZM192,108L192,99.1L195.4,99.1C198.2,99.1 199.9,100.3 199.9,103.5C199.9,106.5 198.2,108 195.3,108L192,108ZM195.2,111.1C200.3,111.1 204.3,108.9 204.3,103.4C204.3,98 200.5,95.9 195.6,95.9L187.7,95.9L187.7,119.6L192,119.6L192,111.1L195.2,111.1Z" style="fill:rgb(113,112,116);fill-rule:nonzero;"/>
        <path d="M82.3,52.3C87.8,49.8 94,48.4 100.4,48.4C124.7,48.4 144.4,68 144.4,92.1C144.4,100.7 141.9,108.8 137.5,115.6C152.9,108.8 163.7,93.5 163.7,75.6C163.7,51.4 144,31.9 119.7,31.9C104.2,31.9 90.5,39.9 82.7,52" style="fill:rgb(0,121,193);fill-rule:nonzero;"/>
        <path d="M75.7,75.7L75.7,137C75.7,139.5 75.7,142 73.3,144.2L62.7,154.5C59.3,157.8 56.4,155.2 56.4,151.6L56.4,92.2C56.4,74.5 67,59.2 82.4,52.2C78.3,58.9 75.7,67 75.7,75.7M137.5,115.6C129.7,127.8 116,135.9 100.4,135.9C97.8,135.9 97.3,135.9 94,135.4C91,135 89.8,133 92.3,130.7L103.1,120.1C104.8,118.5 106.6,118.4 109.4,118.8C112.2,119.2 115.8,119.5 119.7,119.5C126,119.4 132,118.1 137.5,115.6" style="fill:rgb(0,69,124);fill-rule:nonzero;"/>
        <rect x="0" y="0" width="500" height="212" style="fill:none;fill-rule:nonzero;"/>
    </g>
</svg>
