<svg clip-rule="evenodd" fill-rule="evenodd" stroke-linejoin="round" stroke-miterlimit="2" viewBox="0 0 9000 3000" xmlns="http://www.w3.org/2000/svg"><path d="m0-5.50231h9000v3000h-9000z" fill="#fff"/><g transform="matrix(19.9587 0 0 19.9587 -489.672 -353.755)"><g fill-rule="nonzero"><path d="m378 148.8h2.4v-2.3h-2.4zm-4.1 0h2.1v-5.5c0-2-.9-2.9-2.7-2.9-1.4 0-2.2.7-2.7 1.6v-1.4h-2v8.3h2.1v-4.9c0-1.3.6-2 1.9-2 .5 0 .9.2 1.1.5s.3.9.3 1.5v4.8zm-7.3-2.3h-2c-.1.5-.5 1.1-1.6 1.1-1.2 0-1.8-.8-1.9-2.4h5.6v-.7c0-2.3-1.1-4.2-3.8-4.2-2.5 0-3.9 1.8-3.9 4.3 0 2.6 1.3 4.3 3.9 4.3 2.2.1 3.5-.8 3.7-2.4m-2-2.6h-3.5c.1-1.3.7-2.2 1.8-2.2s1.6.8 1.7 2.2m-15 7.8h2.1v-4c.3.7 1.2 1.3 2.4 1.3 2 0 3.5-1.5 3.5-4.4 0-3.1-1.5-4.3-3.3-4.3-1.3 0-2.2.8-2.6 1.5v-1.4h-2v11.3zm2.1-6.6v-.9c0-1.4.8-2.3 1.9-2.3 1.4 0 1.9 1 1.9 2.8 0 1.9-.7 2.9-1.9 2.9-1.3-.1-1.9-1.1-1.9-2.5m-11.7 6.6h2.1v-4c.3.7 1.2 1.3 2.4 1.3 2 0 3.5-1.5 3.5-4.4 0-3.1-1.5-4.3-3.3-4.3-1.3 0-2.2.8-2.6 1.5v-1.4h-2v11.3zm2-6.6v-.9c0-1.4.8-2.3 1.9-2.3 1.4 0 1.9 1 1.9 2.8 0 1.9-.7 2.9-1.9 2.9-1.2-.1-1.9-1.1-1.9-2.5m-9.2-2.2c0-.7.4-1.2 1.4-1.2.9 0 1.4.5 1.4 1.6v.4c-1.8.1-3 .2-3.9.6-.8.4-1.2 1.1-1.2 2.1 0 1.5 1 2.4 2.7 2.4 1.2 0 2.1-.5 2.5-1.3.2.9.7 1.3 2 1.3h.6v-1.5c-.5 0-.7-.2-.7-.7v-3c0-2.2-.9-3.2-3.4-3.2-2.1 0-3.3 1-3.4 2.6h2zm.9 4.6c-.8 0-1.2-.4-1.2-1.1 0-.4.1-.7.4-.9.4-.3 1.2-.4 2.7-.5v.2c0 1.6-1 2.3-1.9 2.3m-7 1.3h2.1v-5.5c0-2-.9-2.9-2.7-2.9-1.4 0-2.2.8-2.6 1.5v-5.3h-2.1v12.2h2.1v-4.8c0-1.3.6-2 1.9-2 .5 0 .9.2 1.1.5s.3.9.3 1.5v4.8zm-15.5 0-.1.3c-.3.9-.7 1.2-1.6 1.2-.3 0-.6 0-.8-.1v1.6c.1 0 .5.1 1.1.1 2 0 2.7-.8 3.4-2.7l2.9-8.6h-2l-1.4 4.6c-.3.9-.4 1.5-.4 1.5s-.1-.6-.4-1.5l-1.5-4.6h-2.1zm-3.9-5.5c-.1-2-1.6-3-3.6-3-2.5 0-4 1.7-4 4.3 0 2.7 1.4 4.3 4 4.3 2 0 3.6-1.1 3.7-3.1h-2c0 .7-.4 1.7-1.7 1.7-1.5 0-1.9-1.4-1.9-2.9 0-1.6.5-2.9 1.9-2.9 1 0 1.5.7 1.6 1.6zm-14.2-.4c0-.7.4-1.2 1.4-1.2.9 0 1.4.5 1.4 1.6v.4c-1.8.1-3 .2-3.9.6-.8.4-1.2 1.1-1.2 2.1 0 1.5 1 2.4 2.7 2.4 1.2 0 2.1-.5 2.5-1.3.2.9.7 1.3 2 1.3h.6v-1.5c-.5 0-.7-.2-.7-.7v-3c0-2.2-.9-3.2-3.4-3.2-2.1 0-3.3 1-3.4 2.6h2zm.9 4.6c-.8 0-1.2-.4-1.2-1.1 0-.4.1-.7.4-.9.4-.3 1.2-.4 2.7-.5v.2c0 1.6-1 2.3-1.9 2.3m-8.9 1.3h2.2l2.9-8.3h-2l-1.5 4.6c-.3.8-.4 1.7-.4 1.7s-.2-.8-.4-1.7l-1.5-4.6h-2.1zm-6.3 0h2.1v-8.3h-2.1zm0-9.8h2.1v-2h-2.1zm-6.5 9.8h2.1v-4.2c0-1.6.9-2.2 2.4-2.2h.4v-1.9h-.2c-1.1 0-2.3.7-2.7 1.8v-1.7h-2zm-9.8 2.9h2.1v-4c.3.7 1.2 1.3 2.4 1.3 2 0 3.5-1.5 3.5-4.4 0-3.1-1.5-4.3-3.3-4.3-1.3 0-2.2.8-2.6 1.5v-1.4h-2v11.3zm2.1-6.6v-.9c0-1.4.8-2.3 1.9-2.3 1.4 0 1.9 1 1.9 2.8 0 1.9-.7 2.9-1.9 2.9-1.3-.1-1.9-1.1-1.9-2.5m-7.8 1.4h-2c-.1.5-.5 1.1-1.6 1.1-1.2 0-1.8-.8-1.9-2.4h5.6v-.7c0-2.3-1.1-4.2-3.8-4.2-2.5 0-3.9 1.8-3.9 4.3 0 2.6 1.3 4.3 3.9 4.3 2.1.1 3.4-.8 3.7-2.4m-2-2.6h-3.5c.1-1.3.7-2.2 1.8-2.2s1.6.8 1.7 2.2m-11.8 2.6 1.1-1.3 2.1 3.6h2.3l-3-5.1 2.8-3.2h-2.3l-3 3.6v-7.6h-2.1v12.2h2.1zm-9.3-3.6c0-.7.4-1.2 1.4-1.2.9 0 1.4.5 1.4 1.6v.4c-1.8.1-3 .2-3.9.6-.8.4-1.2 1.1-1.2 2.1 0 1.5 1 2.4 2.7 2.4 1.2 0 2.1-.5 2.5-1.3.2.9.7 1.3 2 1.3h.6v-1.5c-.5 0-.7-.2-.7-.7v-3c0-2.2-.9-3.2-3.4-3.2-2.1 0-3.3 1-3.4 2.6h2zm1 4.6c-.8 0-1.2-.4-1.2-1.1 0-.4.1-.7.4-.9.4-.3 1.2-.4 2.7-.5v.2c-.1 1.6-1 2.3-1.9 2.3m-17.6 1.3h2.1v-4.8c0-1.2.6-2 1.8-2 .5 0 .9.2 1.1.5s.3.9.3 1.5v4.9h2.1v-4.9c0-1.3.6-2 1.8-2 .5 0 .9.1 1.1.5s.3.9.3 1.5v4.9h2.1v-5.5c0-2-.9-2.9-2.7-2.9-1.5 0-2.4.9-2.7 1.7-.3-1.1-1.1-1.7-2.5-1.7-1.3 0-2.2.7-2.6 1.6v-1.4h-2v8.1zm-5.8-2.3h-2c-.1.5-.5 1.1-1.6 1.1-1.2 0-1.8-.8-1.9-2.4h5.6v-.7c0-2.3-1.1-4.2-3.8-4.2-2.5 0-3.9 1.8-3.9 4.3 0 2.6 1.3 4.3 3.9 4.3 2.2.1 3.5-.8 3.7-2.4m-2-2.6h-3.5c.1-1.3.7-2.2 1.8-2.2 1.2 0 1.6.8 1.7 2.2m-16.1 4.9 2-7.5c.3-1.2.4-1.9.4-1.9s.1.7.4 1.9l2.1 7.5h2.2l3.2-11.8h-2l-1.9 7.3c-.3 1.2-.4 1.9-.4 1.9s-.1-.8-.4-2l-2-7.3h-2.1l-2 7.3c-.3 1.2-.4 1.9-.4 1.9s-.1-.8-.4-2l-1.9-7.3h-2.2l3.2 11.8h2.2zm250.4-41.3c-.2-2.9-2.3-4.8-6.4-4.8-4.3 0-6.5 2.4-6.5 5.3s1.7 4.4 4.7 4.8l2.6.3c1.8.2 2.2.8 2.2 2 0 1.4-1.2 2.2-3 2.2-2.3 0-3-1.2-3.1-2.4h-3.9c.2 3.3 2.6 5.2 7 5.2 4 0 6.9-1.9 6.9-5.5 0-2.9-1.5-4.4-4.7-4.8l-2.7-.4c-1.5-.2-2.1-.8-2.1-1.9 0-1.2 1-2 2.6-2 1.7 0 2.6.9 2.7 2zm-20.8 12.1h4.3v-11c0-4-1.8-5.9-5.5-5.9-2.8 0-4.5 1.5-5.4 3.1h-.1v-2.8h-4v16.5h4.2v-9.7c0-2.5 1.2-4.1 3.7-4.1 1 0 1.8.3 2.3 1s.5 1.8.5 2.9zm-21.9-14c2.7 0 3.7 2.3 3.7 5.8 0 3.4-1 5.8-3.7 5.8s-3.7-2.3-3.7-5.8c0-3.4 1.1-5.8 3.7-5.8m0 14.4c4.8 0 8-3.3 8-8.7 0-5.3-3-8.6-8-8.6s-8.1 3.3-8.1 8.6c.1 5.4 3 8.7 8.1 8.7m-15.4-.4h4.2v-16.5h-4.2zm-.1-19.7h4.2v-3.9h-4.2zm-10.9-1.5v1.2c0 3.1-.4 3.5-2.5 3.5h-.6v2.9h2.7v8.9c0 3.4 1.7 4.9 5 4.9 1.4 0 2.6-.2 3-.2v-3.1s-.8.1-1.5.1c-1.7 0-2.3-.7-2.3-2.4v-8.1h3.8v-3h-3.8v-4.7zm-16.6 4.7h-4.1v11.2c0 3.9 1.8 5.7 5.5 5.7 2.7 0 4.4-1.4 5.2-3.1h.1v2.7h4v-16.5h-4.2v9c0 3.1-1.2 4.7-3.7 4.7-1 0-1.8-.3-2.2-1-.5-.7-.6-1.8-.6-2.9zm-12.5 16.5h4.2v-24.4h-4.2zm-11.5-14c2.7 0 3.7 2.3 3.7 5.8 0 3.4-1 5.8-3.7 5.8s-3.7-2.3-3.7-5.8c0-3.4 1-5.8 3.7-5.8m0 14.4c4.8 0 8-3.3 8-8.7 0-5.3-3-8.6-8-8.6s-8.1 3.3-8.1 8.6c0 5.4 3 8.7 8.1 8.7m-11.6-17.7c-.2-4-2.7-6.8-8.4-6.8-5.4 0-8.6 3-8.6 7 0 3.5 2.1 5.9 6.1 6.6l3.5.7c2.6.5 3.6 1.5 3.6 3.3 0 2-1.3 3.7-4.6 3.7-3 0-4.6-1.8-4.9-4h-4.5c.2 4.6 3.5 7.2 9.3 7.2 5.9 0 9.2-2.8 9.2-7.6 0-3.5-1.9-5.7-6.2-6.5l-3.5-.6c-2.4-.5-3.4-1.5-3.4-3.3 0-1.9 1.5-3.3 4-3.3 2.7 0 3.9 1.7 4.1 3.6zm-37.4 17.4-.2.6c-.7 1.7-1.3 2.4-3.3 2.4-.6 0-1.2-.1-1.6-.2v3.1c.2.1.9.2 2.2.2 4.1 0 5.5-1.6 6.8-5.5l5.9-17.2h-4.1l-2.9 9.3c-.5 1.7-.8 3-.8 3h-.1s-.2-1.3-.8-3l-3-9.3h-4.2zm-7.9-11c-.2-4.1-3.2-6-7.2-6-5 0-8 3.4-8 8.7 0 5.4 2.9 8.6 8 8.6 4.1 0 7.2-2.1 7.4-6.3h-4c-.1 1.5-.9 3.3-3.3 3.3-3 0-3.7-2.8-3.7-5.8 0-3.2 1.1-5.7 3.7-5.7 2 0 3 1.4 3.2 3.1h3.9zm-28.6-.8c.1-1.3.9-2.4 2.8-2.4s2.8 1 2.8 3.3v.8c-3.6.2-6.1.4-7.8 1.3s-2.5 2.3-2.5 4.2c0 3 2.1 4.8 5.5 4.8 2.4 0 4.1-1 5.1-2.7h.1c.4 1.9 1.5 2.5 3.9 2.5h1.2v-3c-1.1 0-1.4-.4-1.4-1.5v-6.1c0-4.4-1.9-6.4-6.8-6.4-4.2 0-6.7 2-6.8 5.1h3.9zm1.8 9.1c-1.5 0-2.4-.9-2.4-2.2 0-.8.2-1.4.8-1.8.9-.6 2.4-.9 5.3-1v.5c0 3.2-1.9 4.5-3.7 4.5m-18.2 2.6h4.3l5.8-16.5h-4l-3 9.1c-.5 1.7-.9 3.3-.9 3.3h-.1s-.3-1.6-.9-3.3l-2.9-9.1h-4.2zm-12.8 0h4.2v-16.5h-4.2zm0-19.7h4.2v-3.9h-4.2zm-12.4 19.7h4.2v-8.5c0-3.2 1.8-4.4 4.7-4.4h.8v-3.9h-.3c-2.3 0-4.5 1.4-5.4 3.6h-.1v-3.3h-3.9zm-14.8-11.6v-8.9h3.4c2.8 0 4.5 1.2 4.5 4.4 0 3-1.7 4.5-4.6 4.5zm3.2 3.1c5.1 0 9.1-2.2 9.1-7.7 0-5.4-3.8-7.5-8.7-7.5h-7.9v23.7h4.3v-8.5z" fill="#717074"/><path d="m82.3 52.3c5.5-2.5 11.7-3.9 18.1-3.9 24.3 0 44 19.6 44 43.7 0 8.6-2.5 16.7-6.9 23.5 15.4-6.8 26.2-22.1 26.2-40 0-24.2-19.7-43.7-44-43.7-15.5 0-29.2 8-37 20.1" fill="#0079c1"/><path d="m75.7 75.7v61.3c0 2.5 0 5-2.4 7.2l-10.6 10.3c-3.4 3.3-6.3.7-6.3-2.9v-59.4c0-17.7 10.6-33 26-40-4.1 6.7-6.7 14.8-6.7 23.5m61.8 39.9c-7.8 12.2-21.5 20.3-37.1 20.3-2.6 0-3.1 0-6.4-.5-3-.4-4.2-2.4-1.7-4.7l10.8-10.6c1.7-1.6 3.5-1.7 6.3-1.3s6.4.7 10.3.7c6.3-.1 12.3-1.4 17.8-3.9" fill="#00457c"/></g><path d="m0 0h500v212h-500z" fill="none"/></g></svg>