<svg height="1000.0001" viewBox="0 0 793.74998 264.58335" width="3000" xmlns="http://www.w3.org/2000/svg"><path d="m0 0h793.75v264.58334h-793.75z" fill="#fff" stroke-width=".264583"/><g fill="none" transform="matrix(1.854859 0 0 1.854859 34.225007 87.852699)"><g fill="#000"><path d="m53.6262.138739h-16.088v38.879461h16.088z"/><path d="m16.0881.138729h-16.08808093v22.121071l16.08808093 16.7584z"/><path d="m16.0881 39.0182h-16.08808093v21.4507h16.08808093z"/><path d="m37.5391 39.0181h-21.4508l12.7364 16.0881h8.7144z"/><path d="m69.6262 1.4h40.0338v5.92h-16.7978v45.88h-6.438v-45.88h-16.798z"/><path d="m107.66 34.33c0-3.848.74-7.2273 2.22-10.138 1.53-2.9107 3.651-5.1553 6.364-6.734 2.714-1.628 5.822-2.442 9.324-2.442 3.454 0 6.512.7153 9.176 2.146s4.761 3.5027 6.29 6.216c1.53 2.7133 2.344 5.8953 2.442 9.546 0 .5427-.049 1.406-.148 2.59h-29.304v.518c.099 3.7 1.234 6.66 3.404 8.88 2.171 2.22 5.008 3.33 8.51 3.33 2.714 0 5.008-.666 6.882-1.998 1.924-1.3813 3.207-3.2807 3.848-5.698h6.142c-.74 3.848-2.59 7.0053-5.55 9.472-2.96 2.4173-6.586 3.626-10.878 3.626-3.749 0-7.03-.7893-9.842-2.368-2.812-1.628-5.007-3.8973-6.586-6.808-1.529-2.96-2.294-6.3393-2.294-10.138zm29.526-3.848c-.296-3.2067-1.504-5.698-3.626-7.474-2.072-1.776-4.711-2.664-7.918-2.664-2.861 0-5.377.9373-7.548 2.812-2.17 1.8747-3.404 4.3167-3.7 7.326z"/><path d="m154.992 40.768c.099 2.2693 1.085 4.1193 2.96 5.55 1.924 1.4307 4.391 2.146 7.4 2.146 2.664 0 4.81-.518 6.438-1.554 1.677-1.0853 2.516-2.4913 2.516-4.218 0-1.48-.395-2.6147-1.184-3.404s-1.825-1.332-3.108-1.628c-1.233-.296-3.009-.592-5.328-.888-3.256-.3947-5.92-.9127-7.992-1.554s-3.749-1.6527-5.032-3.034c-1.283-1.4307-1.924-3.3793-1.924-5.846 0-2.22.617-4.1933 1.85-5.92 1.283-1.7267 3.009-3.0587 5.18-3.996 2.171-.9867 4.613-1.48 7.326-1.48 4.44 0 8.041 1.036 10.804 3.108 2.812 2.072 4.366 5.032 4.662 8.88h-6.068c-.247-1.9733-1.209-3.6013-2.886-4.884s-3.774-1.924-6.29-1.924c-2.565 0-4.637.5427-6.216 1.628-1.579 1.036-2.368 2.4173-2.368 4.144 0 1.2827.37 2.2693 1.11 2.96s1.677 1.1593 2.812 1.406c1.184.2467 2.96.518 5.328.814 3.305.3947 6.019.9373 8.14 1.628 2.171.6907 3.897 1.8007 5.18 3.33 1.332 1.5293 1.998 3.6013 1.998 6.216 0 2.2693-.666 4.2673-1.998 5.994s-3.133 3.0587-5.402 3.996-4.785 1.406-7.548 1.406c-4.933 0-8.905-1.1347-11.914-3.404-2.96-2.2693-4.465-5.4267-4.514-9.472z"/><path d="m189.7 21.01h-6.808v-5.55h6.808v-10.582h6.068v10.582h9.546v5.55h-9.546v22.274c0 1.5787.296 2.7133.888 3.404.641.6413 1.727.962 3.256.962h6.586v5.55h-6.956c-3.552 0-6.093-.7893-7.622-2.368-1.48-1.5787-2.22-4.07-2.22-7.474z"/><path d="m211.703 1.4h8.14l18.352 42.994 18.13-42.994h7.992v51.8h-6.29v-40.848l-17.168 40.848h-5.698l-17.168-40.848v40.848h-6.29z"/><path d="m305.955 15.46v37.74h-5.254l-.814-5.032c-2.861 3.6507-6.882 5.476-12.062 5.476-4.489 0-8.091-1.3813-10.804-4.144s-4.07-7.104-4.07-13.024v-21.016h6.068v20.646c0 3.8973.839 6.882 2.516 8.954 1.727 2.0227 4.169 3.034 7.326 3.034 3.453 0 6.142-1.2333 8.066-3.7 1.973-2.4667 2.96-5.8213 2.96-10.064v-18.87z"/><path d="m330.264 53.2 19.758-51.8h7.622l19.684 51.8h-6.882l-5.476-13.986h-22.57l-5.476 13.986zm14.06-19.832h18.722l-9.398-24.938z"/><path d="m383.189 1.4h6.438v51.8h-6.438z"/></g><g stroke="#000" stroke-width="2.8"><path d="m69.6262 1.4h40.0338v5.92h-16.7978v45.88h-6.438v-45.88h-16.798z"/><path d="m107.66 34.33c0-3.848.74-7.2273 2.22-10.138 1.53-2.9107 3.651-5.1553 6.364-6.734 2.714-1.628 5.822-2.442 9.324-2.442 3.454 0 6.512.7153 9.176 2.146s4.761 3.5027 6.29 6.216c1.53 2.7133 2.344 5.8953 2.442 9.546 0 .5427-.049 1.406-.148 2.59h-29.304v.518c.099 3.7 1.234 6.66 3.404 8.88 2.171 2.22 5.008 3.33 8.51 3.33 2.714 0 5.008-.666 6.882-1.998 1.924-1.3813 3.207-3.2807 3.848-5.698h6.142c-.74 3.848-2.59 7.0053-5.55 9.472-2.96 2.4173-6.586 3.626-10.878 3.626-3.749 0-7.03-.7893-9.842-2.368-2.812-1.628-5.007-3.8973-6.586-6.808-1.529-2.96-2.294-6.3393-2.294-10.138zm29.526-3.848c-.296-3.2067-1.504-5.698-3.626-7.474-2.072-1.776-4.711-2.664-7.918-2.664-2.861 0-5.377.9373-7.548 2.812-2.17 1.8747-3.404 4.3167-3.7 7.326z"/><path d="m154.992 40.768c.099 2.2693 1.085 4.1193 2.96 5.55 1.924 1.4307 4.391 2.146 7.4 2.146 2.664 0 4.81-.518 6.438-1.554 1.677-1.0853 2.516-2.4913 2.516-4.218 0-1.48-.395-2.6147-1.184-3.404s-1.825-1.332-3.108-1.628c-1.233-.296-3.009-.592-5.328-.888-3.256-.3947-5.92-.9127-7.992-1.554s-3.749-1.6527-5.032-3.034c-1.283-1.4307-1.924-3.3793-1.924-5.846 0-2.22.617-4.1933 1.85-5.92 1.283-1.7267 3.009-3.0587 5.18-3.996 2.171-.9867 4.613-1.48 7.326-1.48 4.44 0 8.041 1.036 10.804 3.108 2.812 2.072 4.366 5.032 4.662 8.88h-6.068c-.247-1.9733-1.209-3.6013-2.886-4.884s-3.774-1.924-6.29-1.924c-2.565 0-4.637.5427-6.216 1.628-1.579 1.036-2.368 2.4173-2.368 4.144 0 1.2827.37 2.2693 1.11 2.96s1.677 1.1593 2.812 1.406c1.184.2467 2.96.518 5.328.814 3.305.3947 6.019.9373 8.14 1.628 2.171.6907 3.897 1.8007 5.18 3.33 1.332 1.5293 1.998 3.6013 1.998 6.216 0 2.2693-.666 4.2673-1.998 5.994s-3.133 3.0587-5.402 3.996-4.785 1.406-7.548 1.406c-4.933 0-8.905-1.1347-11.914-3.404-2.96-2.2693-4.465-5.4267-4.514-9.472z"/><path d="m189.7 21.01h-6.808v-5.55h6.808v-10.582h6.068v10.582h9.546v5.55h-9.546v22.274c0 1.5787.296 2.7133.888 3.404.641.6413 1.727.962 3.256.962h6.586v5.55h-6.956c-3.552 0-6.093-.7893-7.622-2.368-1.48-1.5787-2.22-4.07-2.22-7.474z"/><path d="m211.703 1.4h8.14l18.352 42.994 18.13-42.994h7.992v51.8h-6.29v-40.848l-17.168 40.848h-5.698l-17.168-40.848v40.848h-6.29z"/><path d="m305.955 15.46v37.74h-5.254l-.814-5.032c-2.861 3.6507-6.882 5.476-12.062 5.476-4.489 0-8.091-1.3813-10.804-4.144s-4.07-7.104-4.07-13.024v-21.016h6.068v20.646c0 3.8973.839 6.882 2.516 8.954 1.727 2.0227 4.169 3.034 7.326 3.034 3.453 0 6.142-1.2333 8.066-3.7 1.973-2.4667 2.96-5.8213 2.96-10.064v-18.87z"/><path d="m330.264 53.2 19.758-51.8h7.622l19.684 51.8h-6.882l-5.476-13.986h-22.57l-5.476 13.986zm14.06-19.832h18.722l-9.398-24.938z"/><path d="m383.189 1.4h6.438v51.8h-6.438z"/></g></g></svg>