<?xml version="1.0" encoding="UTF-8" standalone="no"?>
<!DOCTYPE svg PUBLIC "-//W3C//DTD SVG 1.1//EN" "http://www.w3.org/Graphics/SVG/1.1/DTD/svg11.dtd">
<svg width="100%" height="100%" viewBox="0 0 180 60" version="1.1" xmlns="http://www.w3.org/2000/svg" xmlns:xlink="http://www.w3.org/1999/xlink" xml:space="preserve" xmlns:serif="http://www.serif.com/" style="fill-rule:evenodd;clip-rule:evenodd;stroke-linejoin:round;stroke-miterlimit:2;">
    <g transform="matrix(0.989348,0,0,0.968489,-0.174854,0.333293)">
        <g id="Layer1">
            <rect x="0.177" y="-0.344" width="181.938" height="61.952" style="fill:white;"/>
        </g>
    </g>
    <g transform="matrix(0.416561,0,0,0.416667,90,30)">
        <g id="Layer2">
            <g transform="matrix(1,0,0,1,-216.055,-72)">
                <g id="Artwork">
                    <path d="M96,93.77L96,50.23C96,45.82 96,45.82 100.65,45.82C105.3,45.82 105.3,45.82 105.3,50.23L105.3,93.77C105.3,98.18 105.3,98.18 100.65,98.18C96,98.18 96,98.18 96,93.77Z" style="fill:rgb(75,81,104);fill-rule:nonzero;"/>
                    <path d="M118.62,91.27L118.62,52.73C118.62,45.81 118.62,45.81 125.54,45.81L136.82,45.81C151.93,45.81 161.23,53.35 162.22,65.63C162.539,69.21 162.539,72.81 162.22,76.39C161.22,88.59 151.92,98.18 136.82,98.18L125.54,98.18C118.62,98.18 118.62,98.18 118.62,91.27ZM136.62,89.36C146.96,89.36 152.28,83.52 152.88,75.49C153.157,72.52 153.157,69.53 152.88,66.56C152.2,58.45 146.96,54.65 136.62,54.65L127.93,54.65L127.93,89.36L136.62,89.36Z" style="fill:rgb(75,81,104);fill-rule:nonzero;"/>
                    <path d="M174.68,91.27L174.68,52.73C174.68,45.81 174.68,45.81 181.6,45.81L207.8,45.81C212.37,45.81 212.37,45.81 212.37,50.1C212.37,54.39 212.37,54.47 207.8,54.47L184,54.47L184,67.95L205.51,67.95C209.88,67.95 209.88,67.95 209.88,72.04C209.88,76.13 209.88,76.17 205.51,76.17L184,76.17L184,89.52L208,89.52C212.57,89.52 212.57,89.52 212.57,93.77C212.57,98.18 212.57,98.18 208,98.18L181.6,98.18C174.68,98.18 174.68,98.18 174.68,91.27Z" style="fill:rgb(75,81,104);fill-rule:nonzero;"/>
                    <path d="M225.72,91.27L225.72,50.27C225.72,45.78 225.72,45.78 230.33,45.78C234.94,45.78 234.98,45.78 234.98,50.19L234.98,89.52L258.12,89.52C262.81,89.52 262.81,89.52 262.81,93.89C262.81,98.26 262.81,98.18 258.12,98.18L232.64,98.18C225.72,98.18 225.72,98.18 225.72,91.27Z" style="fill:rgb(75,81,104);fill-rule:nonzero;"/>
                    <path d="M276,93.77L276,50.23C276,45.82 276,45.82 280.65,45.82C285.3,45.82 285.3,45.82 285.3,50.23L285.3,93.77C285.3,98.18 285.3,98.18 280.65,98.18C276,98.18 276,98.18 276,93.77Z" style="fill:rgb(75,81,104);fill-rule:nonzero;"/>
                    <path d="M298.51,93.77L298.51,52.77C298.51,45.85 298.51,45.85 305.43,45.85L331.63,45.85C336.12,45.85 336.16,45.85 336.16,50.22C336.16,54.59 336.16,54.51 331.63,54.51L307.82,54.51L307.82,68.51L329.89,68.51C334.42,68.51 334.42,68.51 334.42,72.72C334.42,76.93 334.42,77.01 329.89,77.01L307.82,77.01L307.82,93.77C307.82,98.18 307.82,98.18 303.17,98.18C298.52,98.18 298.51,98.18 298.51,93.77Z" style="fill:rgb(75,81,104);fill-rule:nonzero;"/>
                    <path d="M78.1,45.82L41.64,45.82C36.87,45.82 36.87,45.82 36.87,50.19C36.87,54.56 36.87,54.48 41.64,54.48L55.24,54.48L55.24,69.93L64.5,62.67L64.5,54.48L78.1,54.48C82.79,54.48 82.79,54.48 82.79,50.19C82.79,45.9 82.79,45.82 78.1,45.82Z" style="fill:rgb(75,81,104);fill-rule:nonzero;"/>
                    <path d="M55.24,78.89L55.24,93.65C55.24,98.06 55.24,98.06 59.89,98.06C64.54,98.06 64.5,98.06 64.5,93.57L64.5,71.63L55.24,78.89Z" style="fill:rgb(246,145,77);fill-rule:nonzero;"/>
                    <path d="M354,45.82L390.46,45.82C395.23,45.82 395.23,45.82 395.23,50.19C395.23,54.56 395.23,54.48 390.46,54.48L376.86,54.48L376.86,69.93L367.6,62.67L367.6,54.48L354,54.48C349.31,54.48 349.31,54.48 349.31,50.19C349.31,45.9 349.32,45.82 354,45.82Z" style="fill:rgb(75,81,104);fill-rule:nonzero;"/>
                    <path d="M376.87,78.89L376.87,93.65C376.87,98.06 376.87,98.06 372.22,98.06C367.57,98.06 367.61,98.06 367.61,93.57L367.61,71.63L376.87,78.89Z" style="fill:rgb(246,145,77);fill-rule:nonzero;"/>
                </g>
            </g>
        </g>
    </g>
</svg>
