<?xml version="1.0" encoding="UTF-8" standalone="no"?>
<!DOCTYPE svg PUBLIC "-//W3C//DTD SVG 1.1//EN" "http://www.w3.org/Graphics/SVG/1.1/DTD/svg11.dtd">
<svg width="100%" height="100%" viewBox="0 0 180 60" version="1.1" xmlns="http://www.w3.org/2000/svg" xmlns:xlink="http://www.w3.org/1999/xlink" xml:space="preserve" xmlns:serif="http://www.serif.com/" style="fill-rule:evenodd;clip-rule:evenodd;stroke-linejoin:round;stroke-miterlimit:2;">
    <g id="Layer1">
        <g transform="matrix(0.989348,0,0,0.968489,-0.174854,0.333293)">
            <rect x="0.177" y="-0.344" width="181.938" height="61.952" style="fill:white;"/>
        </g>
        <g transform="matrix(0.916667,0,0,0.916667,90,30)">
            <g transform="matrix(1,0,0,1,-57,-30)">
                <g>
                    <path d="M2.432,0.031C1.357,0.031 0.494,0.899 0.494,1.974C0.494,2.327 0.589,2.657 0.754,2.942L21.044,44.567L28.644,25.809L16.687,1.21C16.4,0.539 15.747,0.064 14.979,0.032L2.432,0.031Z" style="fill:rgb(51,134,170);fill-rule:nonzero;"/>
                    <path d="M40.398,0.032C39.557,0.032 38.844,0.559 38.571,1.305L21.043,44.568L27.948,58.76C28.269,59.476 28.935,59.968 29.749,59.968C30.544,59.968 31.238,59.554 31.62,58.684L54.17,2.785C54.272,2.535 54.35,2.263 54.35,1.972C54.35,0.897 53.481,0.039 52.407,0.032L40.398,0.032Z" style="fill:rgb(42,194,186);fill-rule:nonzero;"/>
                    <path d="M56.966,57.282C56.876,57.507 56.825,57.751 56.825,58.009C56.825,59.084 57.697,59.969 58.772,59.969L70.778,59.967C71.588,59.967 72.282,59.468 72.575,58.765L72.578,58.763L95.18,2.701C95.27,2.477 95.321,2.234 95.321,1.977C95.321,0.902 94.451,0.032 93.378,0.032L81.365,0.032C80.532,0.033 79.825,0.547 79.549,1.284L56.966,57.282Z" style="fill:rgb(236,30,121);fill-rule:nonzero;"/>
                    <path d="M28.643,25.81L26.72,21.852L21.043,44.568L21.73,42.873L28.643,25.81Z" style="fill:rgb(39,102,128);fill-rule:nonzero;"/>
                    <path d="M56.862,58.385L56.862,58.383C56.858,58.366 56.855,58.347 56.852,58.328L56.852,58.326C56.839,58.245 56.831,58.163 56.828,58.081L56.828,58.072C56.827,58.053 56.827,58.034 56.826,58.015L56.826,58.006C56.826,57.748 56.877,57.506 56.967,57.281C59.09,52.009 65.47,36.196 65.47,36.196L65.547,36.005L54.293,1.507C54.297,1.523 54.301,1.539 54.304,1.555C54.307,1.571 54.311,1.587 54.314,1.603L54.314,1.604C54.317,1.62 54.32,1.636 54.323,1.652L54.323,1.653C54.325,1.669 54.328,1.685 54.33,1.701L54.33,1.702C54.332,1.719 54.334,1.735 54.336,1.751L54.336,1.752C54.338,1.768 54.34,1.785 54.341,1.801L54.341,1.803C54.342,1.819 54.343,1.836 54.344,1.852L54.344,1.853C54.345,1.879 54.347,1.905 54.347,1.932L54.347,2.003C54.346,2.054 54.343,2.106 54.337,2.157C54.335,2.174 54.333,2.19 54.331,2.207C54.329,2.224 54.326,2.24 54.323,2.257L54.323,2.258C54.321,2.274 54.317,2.291 54.314,2.306L54.314,2.308C54.311,2.324 54.308,2.34 54.304,2.355L54.304,2.357C54.3,2.373 54.297,2.388 54.293,2.403C54.293,2.405 54.292,2.406 54.292,2.407C54.289,2.422 54.285,2.437 54.28,2.451C54.28,2.453 54.279,2.454 54.279,2.457C54.276,2.471 54.272,2.485 54.267,2.499C54.266,2.502 54.266,2.504 54.265,2.507C54.261,2.52 54.258,2.533 54.253,2.547C54.252,2.55 54.251,2.554 54.25,2.557C54.246,2.569 54.243,2.581 54.238,2.594C54.237,2.599 54.235,2.603 54.233,2.608C54.23,2.619 54.226,2.63 54.221,2.641C54.219,2.647 54.217,2.653 54.215,2.659C54.212,2.669 54.208,2.679 54.205,2.688C54.202,2.696 54.199,2.705 54.195,2.712C54.193,2.719 54.19,2.727 54.187,2.733C54.181,2.749 54.175,2.764 54.168,2.779L45.639,23.923L56.9,58.548C56.887,58.499 56.873,58.442 56.862,58.385Z" style="fill:rgb(177,23,91);fill-rule:nonzero;"/>
                    <path d="M113.439,57.532L95.258,1.487C95.3,1.644 95.321,1.808 95.321,1.977C95.321,2.233 95.27,2.477 95.18,2.701L88.199,20.019L86.623,23.929L97.895,58.605C98.145,59.393 98.881,59.969 99.751,59.969L111.574,59.969C112.641,59.969 113.506,59.097 113.506,58.027C113.506,57.854 113.482,57.692 113.439,57.532Z" style="fill:rgb(177,23,91);fill-rule:nonzero;"/>
                    <path d="M88.483,29.656L86.622,23.929L95.162,2.747L88.483,29.656Z" style="fill:rgb(132,18,69);fill-rule:nonzero;"/>
                    <path d="M47.504,29.656L45.641,23.93L54.186,2.748L47.504,29.656Z" style="fill:rgb(132,18,69);fill-rule:nonzero;"/>
                    <path d="M63.682,30.29L65.546,36.006L57.003,57.189L63.682,30.29Z" style="fill:rgb(132,18,69);fill-rule:nonzero;"/>
                </g>
            </g>
        </g>
    </g>
</svg>
