<svg clip-rule="evenodd" fill-rule="evenodd" stroke-linejoin="round" stroke-miterlimit="2" viewBox="0 0 180 60" xmlns="http://www.w3.org/2000/svg"><path d="m0 0h180v60h-180z" fill="#fff"/><g fill-rule="nonzero"><path d="m39.98 2.528c-.986 0-1.777.796-1.777 1.781 0 .324.087.627.238.888l18.6 38.156 6.966-17.195-10.96-22.548a1.783 1.783 0 0 0 -1.566-1.08h-11.502z" fill="#3386aa"/><path d="m74.781 2.53c-.77 0-1.424.482-1.674 1.166l-16.068 39.658 6.33 13.01c.294.656.905 1.107 1.65 1.107.73 0 1.366-.38 1.716-1.177l20.67-51.241c.094-.23.166-.479.166-.745 0-.986-.797-1.772-1.781-1.779h-11.01z" fill="#2ac2ba"/><path d="m89.969 55.009a1.795 1.795 0 0 0 1.656 2.463l11.005-.002c.742 0 1.379-.458 1.647-1.102l.003-.002 20.718-51.39a1.782 1.782 0 0 0 -1.652-2.447h-11.011a1.77 1.77 0 0 0 -1.665 1.148z" fill="#ec1e79"/><path d="m64.006 26.16-1.763-3.629-5.204 20.823.63-1.554z" fill="#276680"/><path d="m89.873 56.02v-.002l-.009-.05v-.002a1.844 1.844 0 0 1 -.022-.225v-.008c0-.018 0-.035-.002-.053v-.008c0-.236.047-.458.13-.664 1.946-4.833 7.794-19.328 7.794-19.328l.07-.175-10.314-31.625.01.044c.002.015.006.03.009.044v.001l.008.044v.001l.006.044v.001l.006.045v.001l.005.045v.002l.002.045c.001.024.003.048.003.073v.065c0 .047-.004.094-.01.141 0 .016-.003.03-.005.046-.001.016-.004.03-.007.046l-.008.045v.002l-.01.043v.002l-.01.042v.003a.29.29 0 0 1 -.011.04l-.001.006a.303.303 0 0 1 -.011.039l-.002.007-.011.037-.003.009c-.004.01-.006.022-.01.034l-.005.013a.2.2 0 0 1 -.011.03l-.006.016-.01.027-.008.022a.58.58 0 0 1 -.025.061l-7.819 19.384 10.322 31.74a2.272 2.272 0 0 1 -.035-.15zm51.863-.782-16.666-51.375a1.776 1.776 0 0 1 -.072 1.113l-6.398 15.874-1.445 3.584 10.333 31.786a1.79 1.79 0 0 0 1.701 1.25h10.838a1.777 1.777 0 0 0 1.71-2.233z" fill="#b1175b"/><path d="m118.86 29.685-1.706-5.25 7.828-19.417-6.123 24.667zm-37.565 0-1.707-5.25 7.832-19.415-6.125 24.666zm14.83.581 1.709 5.24-7.831 19.417z" fill="#841245"/></g></svg>