<svg viewBox="0 0 142 118" xmlns="http://www.w3.org/2000/svg" fill-rule="evenodd" clip-rule="evenodd" stroke-linejoin="round" stroke-miterlimit="1.414"><path fill="none" d="M0 0h141.578v117.638H0z"/><path d="M32.55 82.516c-.191 4.027-.832 8.503-1.793 13.238-1.023 4.793-2.301 9.269-3.836 13.234a31.74 31.74 0 01-10.808 1.922c-3.77 0-7.161-.707-9.973-1.922 0 0-.387-3.133.637-7.863 1.023-4.797 2.687-7.93 2.687-7.93a32.101 32.101 0 0110.871-1.918c1.856 0 3.645.192 5.309.512.445-2.688.832-5.309.832-5.309s-2.496-.703-4.988-.703c-4.864 0-9.465 1.086-11.45 1.664.579-1.726 1.09-3.328 1.727-4.925 3.328-1.153 7.035-1.856 10.809-1.856 3.773 0 7.16.703 9.976 1.856zm-15.348 23.277c2.75 0 5.309-.703 5.309-.703s1.34-4.668 2.109-7.996a21.116 21.116 0 00-5.371-.704c-2.496 0-5.437.704-5.437.704s-.703 1.664-1.215 4.031c-.512 2.301-.445 3.965-.445 3.965s2.554.703 5.05.703zm32.676 0c2.813 0 5.629-.512 7.867-1.024-.769 1.981-1.664 3.774-2.621 5.5-2.047.383-4.16.641-6.332.641-3.773 0-7.097-.707-9.914-1.922.129-3.965.77-8.441 1.793-13.234l1.918-9.082h-6.461c.707-1.789 1.473-3.453 2.496-5.051h5.051l1.344-6.332a31.365 31.365 0 016.074-1.535l-1.66 7.867h11.125c-.703 1.789-1.535 3.516-2.492 5.051h-9.723l-1.918 9.082c-.703 3.262-1.469 9.336-1.469 9.336s2.493.703 4.922.703zm27.496 0c2.817 0 5.629-.512 7.867-1.024-.765 1.981-1.664 3.774-2.621 5.5-2.046.383-4.156.641-6.332.641-3.773 0-7.097-.707-9.91-1.922.125-3.965.766-8.441 1.789-13.234l1.918-9.082h-6.457c.703-1.789 1.469-3.453 2.492-5.051h5.055l1.34-6.332a31.365 31.365 0 016.074-1.535l-1.66 7.867h11.125c-.703 1.789-1.535 3.516-2.492 5.051h-9.719l-1.922 9.082c-.703 3.262-1.469 9.336-1.469 9.336s2.493.703 4.922.703zm28.137-25.133c1.984 0 3.84.191 5.629.578-.703 1.727-1.469 3.324-2.367 4.86-1.406-.192-2.813-.321-4.348-.321-2.492 0-5.242.703-5.242.703s-1.856 6.075-2.496 9.274l-3.067 14.515H87.8l3.07-14.515a84.252 84.252 0 013.836-13.238c3.325-1.153 7.035-1.856 10.805-1.856zm28.715 13.621s.445 2.621-.574 7.356c-1.024 4.796-2.559 7.351-2.559 7.351a31.76 31.76 0 01-10.809 1.922c-3.773 0-7.16-.707-9.976-1.922 0 0-.383-1.726.129-4.988 1.406.387 6.457 1.793 10.933 1.793 2.497 0 5.375-.703 5.375-.703s.704-1.153 1.149-3.453c.512-2.305.32-3.454.32-3.454s-2.558-.703-5.051-.703c-3.902 0-7.226-.64-10.039-1.855 0 0-.386-2.879.383-6.524.766-3.707 2.43-6.585 2.43-6.585 3.324-1.153 7.035-1.856 10.808-1.856 3.77 0 7.161.703 9.973 1.856 0 .128.387 2.046-.062 5.179-1.536-.449-7.165-1.918-11-1.918-2.493 0-5.372.703-5.372.703s-.64 1.024-.957 2.621c-.32 1.598-.195 2.622-.195 2.622s2.496.64 5.117.703c3.774 0 7.164.64 9.977 1.855zM79.12 44.539c0-.914-.066-1.805-.195-2.68l2.832-1.687-.058-.266a21.733 21.733 0 00-2.086-5.66l-.137-.254-3.156.723a18.63 18.63 0 00-2.703-3.395l1.285-3.012-.2-.175a22.087 22.087 0 00-4.976-3.246l-.254-.118-2.137 2.442a18.403 18.403 0 00-4.386-1.137l-.727-3.176-.277-.015a19.927 19.927 0 00-1.457-.059c-1.52 0-3 .16-4.43.457l-.277.051-.293 3.25c-1.465.41-2.864.996-4.164 1.73l-2.438-2.132-.238.156a21.852 21.852 0 00-4.496 3.894l-.18.207 1.684 2.821a18.478 18.478 0 00-2.188 3.675l-3.219-.289-.093.266a21.157 21.157 0 00-1.313 5.918l-.023.266 3.035 1.296c-.004.047-.004.098-.004.149 0 1.289.137 2.555.387 3.766l-2.782 1.656.071.273a21.58 21.58 0 002.453 5.672l.14.227 3.223-.731a18.763 18.763 0 002.371 2.703l-1.277 2.993.211.179a21.703 21.703 0 005.359 3.258l.242.105 2.176-2.48c1.059.367 2.176.641 3.313.809l.726 3.187.281.02c.563.047 1.149.078 1.743.078 1.554 0 3.07-.168 4.535-.481l.273-.058.293-3.254a19.053 19.053 0 003.203-1.242l2.477 2.164.234-.137a21.892 21.892 0 004.875-3.918l.196-.203-1.665-2.789a18.426 18.426 0 002.028-3.047l3.293.297.105-.25a21.627 21.627 0 001.672-5.922l.035-.285-2.976-1.27c.031-.429.054-.871.054-1.32zm-12.921 0a5.715 5.715 0 01-5.711 5.715 5.717 5.717 0 01-5.715-5.715 5.725 5.725 0 015.715-5.715c3.156.012 5.711 2.563 5.711 5.715zM103.519 15.5l-.067-.242-2.253-.012a13.253 13.253 0 00-1.258-2.664l1.351-1.844-.136-.191a15.367 15.367 0 00-2.868-3.004l-.195-.156-1.84 1.316a13.082 13.082 0 00-2.722-1.437L93.542 5l-.23-.074a18.186 18.186 0 00-.992-.274 15.815 15.815 0 00-3.086-.402l-.25-.004-.715 2.16a13.133 13.133 0 00-3.024.496l-1.308-1.84-.238.09a14.916 14.916 0 00-3.692 1.934l-.195.14.695 2.18a12.958 12.958 0 00-2.016 2.09l-2.14-.711-.137.211a15.179 15.179 0 00-1.844 3.816l-.066.223 1.852 1.363c-.012.02-.016.043-.02.059a12.874 12.874 0 00-.34 2.578l-2.156.684.012.246c.054 1.468.308 2.902.761 4.261l.075.227 2.308.012c.313.75.692 1.465 1.137 2.148l-1.348 1.828.149.196a15.028 15.028 0 003.129 3.074l.191.14 1.867-1.335c.641.402 1.328.75 2.047 1.039l-.016 2.281.231.074c.387.121.777.234 1.18.332 1.062.246 2.121.379 3.168.402l.242.004.718-2.164a12.819 12.819 0 002.297-.316l1.336 1.863.231-.074A15.097 15.097 0 0097.3 32.07l.203-.137-.679-2.16a13.195 13.195 0 001.804-1.687l2.184.726.144-.191a14.78 14.78 0 002.09-3.762l.09-.238-1.816-1.336c.086-.277.16-.559.23-.84.141-.613.238-1.219.293-1.82l2.191-.695v-.239c0-.086.008-.172.008-.261a15.365 15.365 0 00-.523-3.93zm-10.766 3.941c0 .301-.031.602-.101.903a3.92 3.92 0 01-3.805 3.015 3.72 3.72 0 01-.898-.109c-1.805-.414-3.012-2.024-3.012-3.797 0-.297.031-.594.097-.898a3.914 3.914 0 014.707-2.911 3.913 3.913 0 013.012 3.797z" fill="#222" fill-rule="nonzero"/></svg>
