<?xml version="1.0" encoding="UTF-8" standalone="no"?>
<!-- Created with Inkscape (http://www.inkscape.org/) -->

<svg
   xmlns:dc="http://purl.org/dc/elements/1.1/"
   xmlns:cc="http://creativecommons.org/ns#"
   xmlns:rdf="http://www.w3.org/1999/02/22-rdf-syntax-ns#"
   xmlns:svg="http://www.w3.org/2000/svg"
   xmlns="http://www.w3.org/2000/svg"
   xmlns:sodipodi="http://sodipodi.sourceforge.net/DTD/sodipodi-0.dtd"
   xmlns:inkscape="http://www.inkscape.org/namespaces/inkscape"
   version="1.1"
   id="svg2"
   width="460"
   height="460"
   viewBox="0 0 460 460"
   sodipodi:docname="Attrs.svg"
   inkscape:version="0.92+devel unknown">
  <metadata
     id="metadata8">
    <rdf:RDF>
      <cc:Work
         rdf:about="">
        <dc:format>image/svg+xml</dc:format>
        <dc:type
           rdf:resource="http://purl.org/dc/dcmitype/StillImage" />
        <dc:title></dc:title>
      </cc:Work>
    </rdf:RDF>
  </metadata>
  <defs
     id="defs6" />
  <sodipodi:namedview
     pagecolor="#ffffff"
     bordercolor="#666666"
     inkscape:document-rotation="0"
     borderopacity="1"
     objecttolerance="10"
     gridtolerance="10"
     guidetolerance="10"
     inkscape:pageopacity="0"
     inkscape:pageshadow="2"
     inkscape:window-width="1848"
     inkscape:window-height="1056"
     id="namedview4"
     showgrid="false"
     inkscape:zoom="6.9478261"
     inkscape:cx="286.70482"
     inkscape:cy="354.09923"
     inkscape:window-x="72"
     inkscape:window-y="0"
     inkscape:window-maximized="1"
     inkscape:current-layer="g10" />
  <g
     inkscape:groupmode="layer"
     inkscape:label="Image"
     id="g10">
    <path
       style="fill:#222222"
       d="M 163.89844 266.45117 C 163.68241 266.44567 163.42918 266.45898 163.14062 266.45898 C 159.81993 266.45898 147.77642 269.62287 146.45703 270.8418 C 145.28222 271.92715 142.98134 280.09556 141.70508 287.70898 L 141.07617 291.45898 L 132.74023 291.45898 L 124.4043 291.45898 L 120.78516 298.7832 C 118.79463 302.81173 117.16602 306.41173 117.16602 306.7832 C 117.16602 307.15468 121.66602 307.45898 127.16602 307.45898 C 135.57654 307.45898 137.16602 307.708 137.16602 309.02539 C 137.16602 309.88689 135.84439 316.52439 134.22852 323.77539 C 130.00303 342.7367 127.40632 356.92872 126.69141 364.95898 C 126.34865 368.80898 125.84098 373.55115 125.56445 375.49805 C 125.09614 378.79511 125.3236 379.1651 128.86523 380.86914 C 130.95655 381.87537 136.04102 383.30167 140.16602 384.04102 C 149.30451 385.67897 173.66614 385.33225 177.06055 383.51562 C 178.9214 382.51973 186.16602 369.21449 186.16602 366.79297 C 186.16602 366.48727 184.70352 366.50704 182.91602 366.83789 C 173.32511 368.61309 160.81958 369.24815 154.00391 368.30469 C 149.96814 367.74603 146.49189 367.11374 146.27734 366.90039 C 145.43141 366.05921 148.39391 344.89828 151.12305 332.28906 C 152.70978 324.958 154.52546 316.37148 155.1582 313.20898 L 156.30859 307.45898 L 172.09766 307.45898 L 187.88867 307.45898 L 190.91406 301.70898 C 192.5783 298.54648 194.24664 294.94648 194.62109 293.70898 L 195.30078 291.45898 L 177.73438 291.45898 C 162.42412 291.45898 160.16602 291.25745 160.16602 289.88672 C 160.16602 289.02167 161.08796 284.40917 162.21289 279.63672 C 165.09501 267.40947 165.41062 266.48971 163.89844 266.45117 z M 252.29492 266.49609 C 250.77723 266.47809 248.08549 266.97084 243.79102 267.9668 C 234.58694 270.10137 234.43539 270.19695 233.70117 274.2793 C 233.33708 276.3037 232.31948 280.99648 231.43945 284.70898 L 229.83984 291.45898 L 221.51562 291.45898 L 213.19141 291.45898 L 209.67969 298.43359 C 207.74778 302.26986 206.16602 305.86986 206.16602 306.43359 C 206.16602 307.06521 210.00365 307.45898 216.16602 307.45898 C 221.66602 307.45898 226.1622 307.79647 226.1582 308.20898 C 226.15373 308.62148 224.77372 315.48398 223.08984 323.45898 C 218.29519 346.16684 216.3854 357.27128 215.69531 366.45898 C 215.34417 371.13398 214.85906 375.92255 214.61914 377.09961 C 214.05795 379.85295 218.54092 382.08373 228.48047 383.99805 C 235.55077 385.35973 261.06127 385.32501 265.68945 383.94727 C 266.98161 383.56262 269.09358 380.45556 271.54102 375.33789 C 273.64735 370.93347 275.19332 367.1523 274.97852 366.9375 C 274.76371 366.72269 269.05993 367.1931 262.30273 367.98242 C 252.82782 369.0892 248.26103 369.17364 242.3418 368.35156 C 238.1204 367.76529 234.5473 367.16669 234.40039 367.02148 C 233.80894 366.43685 239.44763 333.27868 241.63867 324.45898 C 242.39016 321.43398 243.52293 316.37148 244.15625 313.20898 L 245.30859 307.45898 L 261.08398 307.45898 L 276.85938 307.45898 L 280.51367 300.35547 C 282.52319 296.44897 284.16602 292.84897 284.16602 292.35547 C 284.16602 291.85972 276.28397 291.45898 266.55078 291.45898 L 248.93359 291.45898 L 249.53906 288.70898 C 249.87158 287.19648 250.8163 282.30248 251.63867 277.83398 C 252.46105 273.36549 253.41475 268.97799 253.75781 268.08398 C 254.15772 267.04184 253.81261 266.5141 252.29492 266.49609 z M 341.58008 287.69336 C 338.79352 287.682 335.93346 287.90503 332.23633 288.35938 C 320.91774 289.75034 306.97658 293.16107 305.93945 294.79297 C 304.80813 296.57306 299.11378 314.19281 297.48242 320.95898 C 294.39083 333.78152 284.16602 381.02893 284.16602 382.49414 C 284.16602 383.04648 288.22871 383.45898 293.66602 383.45898 C 301.62692 383.45898 303.16602 383.20459 303.16602 381.89062 C 303.16602 381.02821 304.27607 375.51572 305.63086 369.64062 C 306.98565 363.76552 309.91598 350.63398 312.14258 340.45898 C 314.36919 330.28398 317.26306 318.59903 318.57422 314.49219 C 321.49053 305.35761 321.68582 305.27041 339.52539 305.08984 L 352.38281 304.95898 L 355.14453 299.45898 C 360.23725 289.31687 360.46321 289.85009 350.48438 288.43359 C 347.07965 287.95029 344.36664 287.70472 341.58008 287.69336 z M 410.63477 287.71094 C 397.7858 287.88475 376.71689 292.12285 374.13867 295.51367 C 369.29849 301.8794 363.75884 328.62759 366.03906 334.625 C 367.47246 338.39513 378.94519 341.45412 395.50977 342.48438 C 402.76832 342.93583 409.99558 343.62821 411.57031 344.02344 L 414.43359 344.74219 L 413.83594 351.35156 C 413.24355 357.89922 411.85337 363.89436 410.41406 366.10742 C 410.00354 366.73864 405.61602 367.73405 400.66602 368.32031 C 390.88174 369.47913 373.94831 367.99326 363.20508 365.0332 C 356.53286 363.19481 356.20254 363.54693 356.18164 372.55664 L 356.16602 379.15625 L 359.9668 380.86914 C 362.05674 381.81157 367.11924 383.18823 371.2168 383.92969 C 385.77909 386.56477 409.57601 385.07984 420.07031 380.88086 C 423.26392 379.60303 424.4853 378.29248 426.55469 373.92188 C 431.0927 364.33745 436.06639 339.88962 434.63672 334.19336 C 433.68905 330.41754 423.70329 327.64935 406.66602 326.44141 C 398.96602 325.89549 391.09102 325.08766 389.16602 324.64453 C 385.71358 323.8498 385.66931 323.77013 385.79297 318.8125 C 385.86192 316.04826 386.67479 312.18935 387.60156 310.23633 C 389.22768 306.80954 389.56416 306.64177 397.20508 305.45312 C 406.40285 304.0223 413.71516 304.6 430.11914 308.05078 C 436.41788 309.37579 441.70538 310.45898 441.86914 310.45898 C 442.0329 310.45898 442.16602 306.91469 442.16602 302.58203 C 442.16602 297.48124 441.72541 294.35019 440.91602 293.70117 C 439.2865 292.3945 423.37002 288.75332 415.56055 287.90039 C 414.13837 287.74507 412.47033 287.68611 410.63477 287.71094 z M 73.748047 288.08008 C 66.513223 287.9827 59.149911 288.69688 52.166016 290.22852 C 37.792316 293.38083 38.293241 293.04013 35.087891 301.83203 L 32.269531 309.56641 L 36.96875 308.87695 C 39.55306 308.49751 42.731413 307.7886 44.033203 307.30273 C 45.335003 306.81686 51.860003 305.91158 58.533203 305.29102 C 67.915803 304.4185 72.309546 304.44473 77.916016 305.40234 C 86.151206 306.80896 85.956325 306.4381 84.015625 316.9707 L 82.865234 323.21484 L 70.207031 322.70117 C 56.876191 322.16049 48.605238 323.11011 37.080078 326.50586 C 29.814828 328.64649 29.94336 328.49012 25.5 340.76172 C 22.75743 348.33608 19.184028 367.44793 19.173828 374.59961 C 19.167378 379.11728 19.279326 379.28945 23.416016 381.01562 C 25.753516 381.99104 30.816016 383.34058 34.666016 384.01562 C 48.996016 386.52823 71.174627 385.25941 81.773438 381.32031 C 85.973408 379.75937 87.159528 378.76096 88.455078 375.69141 C 92.611618 365.84335 99.236936 340.41421 101.67383 324.95898 C 103.87505 310.99841 105.63225 294.59123 104.99414 293.95312 C 104.69999 293.65896 100.00537 292.23904 94.5625 290.79883 C 88.08955 289.08606 80.982871 288.17746 73.748047 288.08008 z M 64.318359 338.80859 C 66.700267 338.85004 68.914716 339.131 71.666016 339.66602 L 78.666016 341.02734 L 78.396484 344.49414 C 78.248124 346.40025 76.848226 352.22436 75.285156 357.4375 C 72.521196 366.65591 72.350048 366.9339 69.054688 367.57422 C 62.094858 368.92658 53.445316 369.18122 46.416016 368.24023 C 38.206416 367.14123 38.310182 367.32249 40.169922 357.3457 C 41.745472 348.89343 44.266697 341.63343 45.835938 341.03125 C 46.625307 340.72834 51.1852 339.99101 55.96875 339.39258 C 59.38719 338.96492 61.936452 338.76715 64.318359 338.80859 z "
       id="path863" />
    <path
       style="fill:#222222;fill-opacity:1;stroke-width:1.83972156;stroke-linecap:round;stroke-linejoin:round"
       d="M 195.46094 101.15234 A 70.194359 70.194359 0 0 0 180.68945 102.81055 C 180.21387 106.86775 179.75639 110.50997 179.31445 113.79492 A 59.831127 59.831127 0 0 0 167.24805 118.61133 C 164.31316 116.72886 161.09587 114.62709 157.54688 112.27148 A 70.194359 70.194359 0 0 0 142.34766 125.50977 C 144.38997 129.1503 146.1838 132.41656 147.74805 135.33594 A 59.831127 59.831127 0 0 0 141.52148 145.58594 C 138.11411 145.79495 134.29519 145.99174 130.01562 146.17578 A 70.194359 70.194359 0 0 0 125.51367 166.39453 C 129.3557 168.16652 132.73624 169.76516 135.63477 171.18555 A 59.831127 59.831127 0 0 0 135.62891 171.34766 A 59.831127 59.831127 0 0 0 136.58984 181.69336 C 134.0177 183.83742 131.00701 186.27986 127.57422 189.01172 A 70.194359 70.194359 0 0 0 136.00391 208.5957 C 140.26727 207.75345 144.03435 207.04889 147.14258 206.5293 A 59.831127 59.831127 0 0 0 153.04102 213.47852 C 152.25412 216.67005 151.23539 220.50524 150.03711 224.8457 A 70.194359 70.194359 0 0 0 168.6543 236.19336 C 171.6305 232.98829 174.29184 230.17913 176.45508 228 A 59.831127 59.831127 0 0 0 184.4668 230.12109 C 185.70616 233.13481 187.16703 236.91517 188.7793 241.20508 A 70.194359 70.194359 0 0 0 195.46094 241.54102 A 70.194359 70.194359 0 0 0 210.72656 239.76953 C 211.24236 235.50233 211.73479 231.73902 212.19727 228.74609 A 59.831127 59.831127 0 0 0 220.06055 225.82617 C 222.85706 227.55301 226.27219 229.7601 230.11133 232.29297 A 70.194359 70.194359 0 0 0 247.16406 218.69531 C 245.10519 215.00418 243.32818 211.73875 241.91016 209.01172 A 59.831127 59.831127 0 0 0 247.17969 201.27539 C 250.55803 201.03801 254.60079 200.82141 259.17773 200.61914 A 70.194359 70.194359 0 0 0 265.03125 180.1582 C 261.2696 178.42177 257.97344 176.85806 255.14453 175.46875 A 59.831127 59.831127 0 0 0 255.29102 171.34766 A 59.831127 59.831127 0 0 0 254.87305 164.58203 C 257.54293 162.3693 260.62563 159.87522 264.11328 157.10352 A 70.194359 70.194359 0 0 0 256.99023 137.71484 C 252.96986 138.5165 249.38555 139.19651 246.19336 139.76758 A 59.831127 59.831127 0 0 0 238.68945 130.08594 C 239.57771 126.67469 240.60147 122.88489 241.77344 118.67773 A 70.194359 70.194359 0 0 0 224.88672 107.70312 C 222.14543 110.67484 219.66262 113.32329 217.39648 115.69727 A 59.831127 59.831127 0 0 0 204.73828 112.2793 C 203.46489 109.01092 202.0933 105.40678 200.60547 101.41016 A 70.194359 70.194359 0 0 0 195.46094 101.15234 z M 195.45898 152.36328 A 18.983849 18.983849 0 0 1 214.44336 171.34766 A 18.983849 18.983849 0 0 1 195.45898 190.33203 A 18.983849 18.983849 0 0 1 176.47461 171.34766 A 18.983849 18.983849 0 0 1 195.45898 152.36328 z "
       id="path16" />
    <path
       style="fill:#222222;fill-opacity:1;stroke-width:1.27516055;stroke-linecap:round;stroke-linejoin:round"
       d="M 287.39062 41.433594 A 0.64450295 0.64450295 0 0 0 286.78125 41.867188 C 285.90431 44.401913 285.10563 46.648649 284.35352 48.714844 C 281.58279 48.895347 278.83168 49.345154 276.15039 50.066406 C 274.50797 48.417054 272.73924 46.619441 270.7793 44.591797 A 0.64450295 0.64450295 0 0 0 270.0918 44.435547 C 265.65378 46.085962 261.45597 48.379123 257.66992 51.222656 A 0.64450295 0.64450295 0 0 0 257.43945 51.925781 C 258.23735 54.553033 258.91763 56.878092 259.51953 58.998047 C 257.60397 60.672905 255.84214 62.519081 254.25977 64.511719 C 252.00691 64.157056 249.53574 63.746837 246.74414 63.257812 A 0.64450295 0.64450295 0 0 0 246.0957 63.537109 C 243.41396 67.598654 241.33853 72.05915 239.95898 76.726562 A 0.64450295 0.64450295 0 0 0 240.1875 77.423828 C 242.40934 79.107742 244.33054 80.595997 246.01953 81.935547 C 245.5739 84.095831 245.30534 86.290741 245.20312 88.494141 C 243.20702 89.526159 240.93612 90.667877 238.32227 91.949219 A 0.64450295 0.64450295 0 0 0 237.96094 92.550781 C 238.14948 97.558541 239.10756 102.53773 240.79102 107.25781 A 0.64450295 0.64450295 0 0 0 241.38477 107.68555 C 244.2552 107.74685 246.74191 107.82876 248.85547 107.93164 C 249.62013 109.638 250.49407 111.29309 251.47852 112.88281 C 250.49548 114.86765 249.30586 117.1808 247.9082 119.82812 A 0.64450295 0.64450295 0 0 0 247.9668 120.51953 C 251.07254 124.59621 254.81857 128.18428 259.02539 131.11133 A 0.64450295 0.64450295 0 0 0 259.75977 131.11133 C 262.13153 129.4677 264.20587 128.06568 265.93945 126.94141 C 267.3844 127.79684 268.87933 128.56721 270.41602 129.24414 C 270.79244 131.41387 271.19749 134.03928 271.63281 137.06055 A 0.64450295 0.64450295 0 0 0 272.07227 137.58203 C 273.56207 138.06668 275.07434 138.47968 276.60352 138.82031 A 0.64450295 0.64450295 0 0 0 276.60938 138.82227 C 280.13463 139.57557 283.74296 139.9401 287.34766 139.9082 A 0.64450295 0.64450295 0 0 0 287.94922 139.47656 C 288.8846 136.80413 289.72293 134.50288 290.45312 132.60352 C 292.14974 132.46859 293.838 132.23557 295.50586 131.89648 C 297.09847 133.44521 298.97887 135.3392 301.11523 137.53711 A 0.64450295 0.64450295 0 0 0 301.76953 137.70312 C 306.66631 136.18422 311.32344 133.89596 315.51758 130.94727 A 0.64450295 0.64450295 0 0 0 315.76367 130.23438 C 314.96236 127.57255 314.29737 125.26613 313.75781 123.28125 C 315.24595 122.05621 316.65248 120.73356 317.95898 119.31641 C 320.21937 119.6526 322.84863 120.08208 325.85742 120.60547 A 0.64450295 0.64450295 0 0 0 326.48242 120.35938 C 329.49801 116.36992 331.90241 111.91873 333.58398 107.20898 A 0.64450295 0.64450295 0 0 0 333.36523 106.47852 C 331.20508 104.84021 329.34921 103.39841 327.70898 102.0957 C 327.93216 101.30767 328.14542 100.5165 328.32227 99.716797 A 0.64450295 0.64450295 0 0 0 328.32422 99.712891 C 328.63245 98.277425 328.84525 96.823079 329.00195 95.363281 C 331.07411 94.298645 333.40677 93.128711 336.06836 91.826172 A 0.64450295 0.64450295 0 0 0 336.42969 91.255859 C 336.48819 86.403053 335.82522 81.542549 334.46875 76.882812 A 0.64450295 0.64450295 0 0 0 333.86133 76.417969 C 331.177 76.365419 328.81886 76.294797 326.66992 76.212891 C 325.7745 73.76807 324.65499 71.407772 323.32422 69.169922 C 324.39759 67.066974 325.58916 64.774612 326.94922 62.212891 A 0.64450295 0.64450295 0 0 0 326.90039 61.529297 C 324.09722 57.717727 320.74082 54.311798 316.9707 51.453125 A 0.64450295 0.64450295 0 0 0 316.21289 51.4375 C 314.03945 52.954349 312.09755 54.284405 310.29492 55.5 C 307.94873 53.965642 305.45152 52.663633 302.84766 51.625 C 302.48737 49.309665 302.11504 46.802625 301.7207 44.003906 A 0.64450295 0.64450295 0 0 0 301.27344 43.478516 C 300.12196 43.118645 298.95798 42.801785 297.7832 42.527344 A 0.64450295 0.64450295 0 0 0 297.77148 42.523438 C 294.36242 41.794244 290.8768 41.428623 287.39062 41.433594 z M 287.78711 77.851562 C 296.03 78.00529 302.57465 87.575532 299.13867 95.287109 C 296.5814 102.25976 287.47317 105.7722 281.01953 101.89648 C 274.78532 98.569592 272.30484 89.808072 276.36133 83.892578 C 278.62447 80.304158 282.70466 77.859147 286.98438 77.867188 C 287.25353 77.852173 287.52121 77.846604 287.78711 77.851562 z "
       id="path932" />
    <path
       style="fill:#222222;fill-opacity:1;stroke-width:1.27516055;stroke-linecap:round;stroke-linejoin:round"
       d="m 287.24023,77.882812 c 0.2118,0.01452 0.43809,0.03013 0.77149,0.04883 -0.21037,-0.01692 -0.35748,-0.0307 -0.49414,-0.04297 -0.2804,-0.0059 -0.4626,-0.0045 -0.27735,-0.0059 z"
       id="path921" />
    <path
       style="fill:#222222;fill-opacity:1;stroke-width:1.27516055;stroke-linecap:round;stroke-linejoin:round"
       d="m 288.01172,77.931641 c 0.11886,0.0096 0.15881,0.01216 0.2793,0.02148 -0.0601,-0.0061 -0.0839,-0.0098 -0.14063,-0.01563 -0.0576,-0.0031 -0.0787,-0.0025 -0.13867,-0.0059 z"
       id="path919" />
    <path
       style="fill:#222222;fill-opacity:1;stroke-width:1.27516055;stroke-linecap:round;stroke-linejoin:round"
       d="m 288.29102,77.953125 c 0.13596,0.01382 0.18228,0.01984 0.31836,0.0332 -0.0718,-0.0088 -0.0983,-0.01303 -0.16602,-0.02148 -0.0626,-0.0047 -0.0866,-0.0066 -0.15234,-0.01172 z"
       id="path917" />
    <path
       style="fill:#222222;fill-opacity:1;stroke-width:1.27516055;stroke-linecap:round;stroke-linejoin:round"
       d="m 288.60938,77.986328 c 0.1138,0.01396 0.15077,0.01772 0.26367,0.03125 -0.0549,-0.0079 -0.0743,-0.01184 -0.12696,-0.01953 -0.0553,-0.0053 -0.0783,-0.006 -0.13671,-0.01172 z"
       id="path915" />
    <path
       style="fill:#222222;fill-opacity:1;stroke-width:1.27516055;stroke-linecap:round;stroke-linejoin:round"
       d="m 288.87305,78.017578 c 0.1153,0.01666 0.15298,0.0209 0.26757,0.03711 -0.0556,-0.0093 -0.0756,-0.01252 -0.1289,-0.02148 -0.0562,-0.0066 -0.0794,-0.0085 -0.13867,-0.01563 z"
       id="path913" />
    <path
       style="fill:#222222;fill-opacity:1;stroke-width:1.27516055;stroke-linecap:round;stroke-linejoin:round"
       d="m 289.14062,78.054688 c 0.0926,0.01545 0.12169,0.02179 0.21485,0.03711 -0.0465,-0.0088 -0.065,-0.01301 -0.10938,-0.02148 -0.0435,-0.0061 -0.0603,-0.0092 -0.10547,-0.01562 z"
       id="path911" />
    <path
       style="fill:#222222;fill-opacity:1;stroke-width:1.27516055;stroke-linecap:round;stroke-linejoin:round"
       d="m 289.35547,78.091797 c 0.35488,0.06722 0.60715,0.112136 0.83594,0.152344 -0.18111,-0.04535 -0.26578,-0.06077 -0.20118,-0.04883 -0.0254,-0.0053 -0.0326,-0.0072 -0.0645,-0.01367 -0.15578,-0.02397 -0.32391,-0.04934 -0.57031,-0.08984 z"
       id="path909" />
    <path
       style="fill:#222222;fill-opacity:1;stroke-width:1.27516055;stroke-linecap:round;stroke-linejoin:round"
       d="m 289.92578,78.181641 c 0.007,0.0011 0.0203,0.0028 0.0273,0.0039 0.0114,0.0024 -0.0299,-0.007 -0.0156,-0.0039 2.8193,0.621989 -2.71441,-0.535923 -0.26367,-0.05273 0.2336,0.04635 0.12765,0.02729 0.25195,0.05273 z"
       id="path907" />
    <path
       style="fill:#222222;fill-opacity:1;stroke-width:1.27516055;stroke-linecap:round;stroke-linejoin:round"
       d="m 288.66016,77.964844 c 0.0171,0.0022 0.0604,0.0079 0.0879,0.01172 0.008,8.94e-4 0.0264,0.0031 0.0332,0.0039 -0.0154,-0.0031 -0.0557,-0.01103 -0.0684,-0.01367 -0.0106,-4.12e-4 -0.0405,-0.0014 -0.0527,-0.002 z"
       id="path897" />
  </g>
</svg>
