<svg viewBox="0 0 588 492" xmlns="http://www.w3.org/2000/svg" fill-rule="evenodd" clip-rule="evenodd" stroke-linejoin="round" stroke-miterlimit="2"><path d="M131.754 348.179c-.796 16.779-3.466 35.429-7.471 55.159-4.262 19.97-9.587 38.62-15.983 55.141-13.85 5.063-29.312 8.008-45.033 8.008-15.709 0-29.838-2.945-41.554-8.008 0 0-1.613-13.054 2.654-32.762 4.262-19.988 11.196-33.042 11.196-33.042 13.85-5.063 29.575-7.992 45.295-7.992 7.734 0 15.188.8 22.121 2.134 1.854-11.2 3.467-22.121 3.467-22.121s-10.4-2.929-20.783-2.929c-20.267 0-39.438 4.525-47.709 6.933 2.413-7.192 4.542-13.867 7.196-20.521 13.867-4.804 29.313-7.733 45.038-7.733 15.72 0 29.833 2.929 41.566 7.733zm-63.95 96.988c11.459 0 22.121-2.93 22.121-2.93s5.583-19.45 8.788-33.316c-4.8-1.321-13.05-2.933-22.38-2.933-10.4 0-22.654 2.933-22.654 2.933s-2.929 6.933-5.062 16.796c-2.134 9.587-1.854 16.52-1.854 16.52s10.641 2.93 21.041 2.93zm136.15 0c11.721 0 23.454-2.134 32.779-4.267-3.204 8.254-6.933 15.725-10.921 22.917-8.529 1.596-17.333 2.671-26.383 2.671-15.721 0-29.571-2.946-41.308-8.009.537-16.521 3.208-35.171 7.471-55.141l7.991-37.842h-26.921c2.946-7.454 6.138-14.388 10.4-21.046h21.046l5.6-26.383c7.992-2.929 16.521-5.063 25.309-6.396L202.1 344.45h46.354c-2.929 7.454-6.396 14.65-10.383 21.046h-40.513l-7.991 37.842c-2.929 13.591-6.121 38.9-6.121 38.9s10.387 2.929 20.508 2.929zm114.567 0c11.737 0 23.454-2.134 32.779-4.267-3.187 8.254-6.933 15.725-10.921 22.917-8.525 1.596-17.316 2.671-26.383 2.671-15.721 0-29.571-2.946-41.292-8.009.521-16.521 3.192-35.171 7.454-55.141l7.992-37.842h-26.904c2.929-7.454 6.121-14.388 10.383-21.046h21.063l5.583-26.383c7.992-2.929 16.521-5.063 25.308-6.396l-6.916 32.779h46.354c-2.929 7.454-6.396 14.65-10.384 21.046h-40.495l-8.009 37.842c-2.929 13.591-6.12 38.9-6.12 38.9s10.387 2.929 20.508 2.929zm117.237-104.721c8.267 0 16 .796 23.455 2.408-2.93 7.196-6.121 13.85-9.863 20.25-5.858-.8-11.721-1.337-18.117-1.337-10.383 0-21.841 2.929-21.841 2.929s-7.734 25.312-10.4 38.642l-12.779 60.479h-24.25l12.791-60.479c3.988-19.73 9.588-38.38 15.984-55.159 13.854-4.804 29.312-7.733 45.02-7.733zM555.404 397.2s1.854 10.921-2.391 30.65c-4.267 19.983-10.663 30.629-10.663 30.629-13.867 5.063-29.312 8.009-45.037 8.009-15.721 0-29.834-2.946-41.567-8.009 0 0-1.596-7.191.537-20.783 5.859 1.612 26.905 7.471 45.555 7.471 10.404 0 22.395-2.929 22.395-2.929s2.934-4.805 4.788-14.388c2.133-9.604 1.333-14.392 1.333-14.392s-10.658-2.929-21.046-2.929c-16.258 0-30.108-2.666-41.829-7.729 0 0-1.608-11.996 1.596-27.183 3.192-15.446 10.125-27.438 10.125-27.438 13.85-4.804 29.313-7.733 45.033-7.733 15.709 0 29.838 2.929 41.555 7.733 0 .534 1.612 8.525-.259 21.579-6.4-1.87-29.854-7.991-45.833-7.991-10.388 0-22.383 2.929-22.383 2.929s-2.667 4.267-3.988 10.921c-1.333 6.658-.813 10.925-.813 10.925s10.401 2.666 21.321 2.929c15.725 0 29.85 2.667 41.571 7.729zM325.796 189.942c0-3.809-.275-7.521-.813-11.167l11.8-7.029-.241-1.108a90.576 90.576 0 00-8.692-23.584l-.571-1.058-13.15 3.012a77.707 77.707 0 00-11.262-14.146l5.354-12.549-.834-.73c-6.25-5.387-13.2-9.962-20.733-13.525l-1.058-.491-8.904 10.175c-5.775-2.296-11.896-3.892-18.275-4.738l-3.029-13.233-1.155-.063a83.473 83.473 0 00-6.071-.245c-6.333 0-12.5.666-18.458 1.904l-1.154.212-1.221 13.542a78.188 78.188 0 00-17.35 7.208l-10.158-8.883-.992.65a91.034 91.034 0 00-18.733 16.225l-.75.862 7.017 11.755a76.904 76.904 0 00-9.117 15.312l-13.413-1.204-.387 1.108a88.153 88.153 0 00-5.471 24.659l-.096 1.108 12.646 5.4c-.017.196-.017.408-.017.621 0 5.37.571 10.645 1.613 15.691l-11.592 6.9.296 1.138a89.93 89.93 0 0010.221 23.633l.583.946 13.429-3.046c2.93 4.054 6.234 7.846 9.879 11.263l-5.32 12.47.879.746c6.704 5.534 14.208 10.142 22.329 13.575l1.008.438 9.067-10.334a76.35 76.35 0 0013.804 3.371l3.025 13.28 1.171.083c2.346.196 4.787.325 7.262.325 6.476 0 12.792-.7 18.896-2.004l1.138-.242 1.221-13.558c4.637-1.321 9.083-3.075 13.346-5.175l10.32 9.016.975-.57a91.22 91.22 0 0020.313-16.326l.816-.845-6.937-11.621c3.225-3.909 6.042-8.188 8.45-12.696l13.721 1.237.437-1.041c3.421-7.667 5.796-15.983 6.967-24.675l.146-1.188-12.4-5.291c.129-1.788.225-3.63.225-5.5zm-53.838 0c0 13.15-10.646 23.796-23.796 23.812-13.17-.016-23.795-10.662-23.812-23.812.017-13.134 10.642-23.763 23.813-23.813 13.149.05 23.795 10.679 23.795 23.813zM427.458 68.946l-.279-1.009-9.387-.05c-1.321-3.891-3.113-7.633-5.242-11.1l5.629-7.683-.566-.796a64.042 64.042 0 00-11.95-12.516l-.813-.65-7.667 5.483c-3.466-2.408-7.291-4.413-11.341-5.988l.045-9.441-.958-.309c-1.366-.408-2.704-.8-4.133-1.141-4.284-1.009-8.596-1.529-12.858-1.675l-1.042-.017-2.979 9c-4.284.196-8.53.896-12.6 2.067l-5.45-7.667-.992.375a62.136 62.136 0 00-15.383 8.058l-.813.584 2.896 9.083c-3.092 2.571-5.925 5.471-8.4 8.708l-8.917-2.962-.571.879a63.294 63.294 0 00-7.683 15.9l-.275.929 7.717 5.68c-.05.083-.067.179-.084.245-.862 3.613-1.3 7.192-1.416 10.742l-8.984 2.85.05 1.025c.225 6.117 1.284 12.092 3.171 17.754l.313.946 9.616.05a55.632 55.632 0 004.738 8.95l-5.617 7.617.621.816c3.692 4.834 8.038 9.196 13.038 12.809l.795.583 7.78-5.563a53.924 53.924 0 008.529 4.33l-.067 9.504.963.308a78.65 78.65 0 004.916 1.383 64.686 64.686 0 0013.2 1.675l1.009.017 2.991-9.017c3.259-.145 6.446-.6 9.571-1.316l5.567 7.762.962-.308c5.825-1.792 11.375-4.475 16.438-7.863l.846-.57-2.83-9c2.7-2.1 5.238-4.442 7.517-7.03l9.1 3.025.6-.795c3.583-4.654 6.529-9.946 8.708-15.675l.375-.992-7.566-5.567c.358-1.154.666-2.329.958-3.5a56.812 56.812 0 001.221-7.583l9.129-2.896v-.996c0-.358.033-.716.033-1.087a63.969 63.969 0 00-2.179-16.375zM382.6 85.367c0 1.254-.129 2.508-.421 3.762-1.792 7.5-8.467 12.563-15.854 12.563-1.254 0-2.492-.146-3.742-.455-7.521-1.725-12.55-8.433-12.55-15.82 0-1.238.129-2.475.404-3.742 1.759-7.504 8.467-12.567 15.871-12.567 1.204 0 2.475.129 3.742.438 7.471 1.741 12.55 8.466 12.55 15.821z" fill="#fff" fill-rule="nonzero"/></svg>
